<?xml version="1.0" encoding="utf-8"?>
<!-- Generator: Adobe Illustrator 17.1.0, SVG Export Plug-In . SVG Version: 6.00 Build 0)  -->
<!DOCTYPE svg PUBLIC "-//W3C//DTD SVG 1.1//EN" "http://www.w3.org/Graphics/SVG/1.1/DTD/svg11.dtd">
<svg version="1.1" id="Layer_1" xmlns="http://www.w3.org/2000/svg" xmlns:xlink="http://www.w3.org/1999/xlink" x="0px" y="0px"
	 viewBox="-67 0 504 396" enable-background="new -67 0 504 396" xml:space="preserve">
<g transform="translate(0.000000,396.000000) scale(0.100000,-0.100000)">
	<path d="M3004.2,1368.9c9.1-28.6,7-54.6-6.6-85.1c-15.4-36.3-43.6-69-50.9-60.9c-1.8,1.8-5.5,19.9-8.2,40
		c-1.8,19.9-9.1,49-15.4,63.6c-11.8,27.3-11.8,27.3-19.9-27.3c-14.6-108.2-27.3-149.9-60.9-201.7
		c-42.7-65.4-145.4-179.9-210.8-235.3l-48.2-41.8l-17.2,39c-9.1,21.8-24.5,49-34.5,59.1l-19.1,19.9l36.3,52.7
		c19.1,30,40.9,67.2,47.2,83.5c7.2,19.1,19.1,30.9,35.5,34.5c78.1,18.2,156.3,95.4,209,207.1c10.4,21.8,19.3,38.5,28,52.2
		c-22.3,0-44.7,0-67,0c-3.6-9.7-7.4-19.3-11.8-28.6c-21.8-45.4-126.3-163.5-145.4-163.5c-3.7,0-7.2,38.2-7.2,84.5
		c0,54.7-2.3,79.8-12.5,107.6c-18.3,0-36.6,0-55,0c15.2-38.9,18.2-83.4,10.2-139.3c-29.1-203.5-191.7-361.6-406.1-393.4
		c-40-6.4-40.9-6.4-40.9,18.2c0,43.6-19.9,94.4-50.9,130l-30,35.5l27.3,32.7l27.3,33.6h-22.7c-75.4,0-139-153.6-104.5-253.5
		c13.6-37.2,26.3-35.5,26.3,4.5c0,44.5,19.1,113.6,30,109.9c5.5-1.8,17.2-17.2,26.3-34.5c46.3-83.5-22.7-217.2-160.8-310.7
		c-54.5-37.2-216.2-115.4-238.9-115.4c-8.2,0-4.5,12.7,10.9,39c12.7,20.9,33.6,70.8,46.3,110.9c21.8,64.5,24.5,82.7,20.9,168.1
		c-3.7,68.1-9.1,106.4-21.8,135.4l-18.2,40l41.8,42.7c25.4,24.5,48.2,58.1,56.3,81.7c12.7,38.2,19.1,43.6,112.7,97.2
		c54.5,30.9,115.4,59.1,136.3,61.8c68.1,10.9,159-41.8,199.9-116.3c23.6-42.7,26.3-55.4,25.4-130.8c-0.9-79.9,0-82.7,14.6-63.6
		c9.1,10.9,19.1,29.1,22.7,40.9c4.5,15.4,10.9,19.9,20.9,15.4c30.9-12.7,83.5-16.4,83.5-5.5c0,5.5-6.4,10-13.6,10
		c-21.8,0-86.2,68.1-86.2,91.7c0,25.4-39,111.8-53.6,121.8c-7.2,3.7,2.7,17.2,27.3,35.5c28.8,23.3,69.2,66.1,102.6,106.7
		c-35.7,0-71.3,0-107,0.1c-36.1-16.5-77-28.7-118.3-33.2c-59.1-6.4-62.6-6.4-55.4,10c2.4,5.9,4.4,14,6.1,23.3
		c-22.1,0-44.1,0.1-66.2,0.1c-22.8-34.6-67.4-70.2-128.8-100.6c-115.4-56.2-111.7-57.1-119.1,11.9c-3.6,35.4-9.1,64.9-16.8,89.1
		c-9.8,0-19.7,0.1-29.5,0.1c0.3-3.5,0.5-7.1,0.9-11c7.2-96.3-8.2-209-35.5-258c-29.1-53.6-84.5-81.7-160.8-81.7
		c-32.7,0-70.8,2.7-86.2,7.2c-26.3,6.4-26.3,6.4-10-11.8c20.9-22.7,66.3-38.2,132.7-45.4l49.9-5.5l17.2-49.9
		c24.5-69,25.4-212.6,1.8-281.6c-25.4-75.4-65.4-140.9-126.3-206.2c-50.9-54.5-52.7-58.1-28.1-51.7c14.6,2.7,44.5,15.4,67.2,26.3
		c41.8,20.9,162.6,53.6,170.8,45.4c9.1-9.1-46.3-76.3-82.7-100.9c-55.4-36.3-110.9-39-206.2-8.2c-49,15.4-114.5,27.3-181.7,32.7
		c-57.2,4.5-119.1,12.7-136.3,17.2c-38.2,10-92.6,53.6-128.1,102.7c-14.6,19.9-26.3,32.7-27.3,28.1c-5.5-44.5,14.6-100,49-137.2
		l18.2-20.9h-71.8c-168.1,0-321.6,74.5-321.6,155.4c0,35.5,30,111.8,58.1,149c37.2,48.2,88.1,62.6,194.4,56.3
		c90.9-6.4,176.2-24.5,224.4-49c14.6-8.2,51.7-35.5,81.7-61.8c123.6-107.2,194.4-132.7,105.4-39
		c-215.3,229.9-251.7,301.7-244.3,482.4c4.5,105.4,23.6,176.2,60.9,223.5l17.2,21.8l70.8-14.6c40-8.2,129-17.2,199-19.1
		c70-2.7,140.9-8.2,157.2-13.6c27.3-8.2,29.1-8.2,18.2,5.5c-19.9,24.5-80.8,46.3-161.8,57.2c-129.2,16.9-203.4,34.3-235.2,56.1
		c-33.6-0.1-67.2-0.1-100.8-0.2c-7.7-17.7-16.4-35.2-26.4-51.4c-19.9-34.5-37.2-65.4-37.2-69c0-3.7-15.4-0.9-33.6,6.4
		c-37.2,12.7-85.4,14.6-120.9,4.5c-20.9-6.4-19.9-8.2,16.4-18.2c21.8-6.4,54.5-24.5,72.7-41.8l33.6-30l5.5-139.9
		c2.7-76.3,10.9-150.9,16.4-166.3c10-22.7,9.1-28.1-5.5-39c-24.5-17.2-100-38.2-166.3-43.6c-88.1-8.2-93.6,0-89,121.8
		c2.7,88.1,2.7,92.6-11.8,75.4c-8.2-10-23.6-53.6-34.5-97.2c-28.1-110.9-51.7-161.8-92.6-199c-40.9-37.2-66.3-44.5-127.2-39
		c-85.4,8.2-130.8,80.8-124.5,199.9c4.5,100.9,49,188.1,142.7,278c39,38.2,89,79,109.1,90.9l38.2,20.9l26.3-28.1
		c14.6-15.4,39-50.9,55.4-78.1c15.4-27.3,30-48.2,31.8-46.3c13.6,12.7-32.7,135.4-70.8,189.9c-8.2,11.8-5.5,31.7,14.4,99.4
		c-9.9,0-19.9,0-29.8,0c-4.8,0-9.5,0-14.3,0c-3.7-7.8-7.2-15.6-10.2-23.1c-23.6-56.3-28.1-61.8-89-98.1
		c-89.9-52.7-166.3-132.7-211.7-220.7L334.5,954l-10,27.3c-21.8,55.4-29.1,139.9-18.2,201.7c11.1,65,34.8,126.9,70.3,185.8
		c-54.1,0-108.2,0.1-162.3,0.2c-3.6-9.1-6.6-17.3-8.9-24.2c-33.6-105.4-87.2-143.6-153.6-109.1c-42.6,21.9-72.1,69.2-87.1,133.6
		c-18.4,0-36.8,0.1-55.2,0.2c7.5-35.9,19.3-69.8,36-102.7l30-59.9l-29.1-19.1c-31.8-20.9-70-79.9-79.9-124.5
		c-6.4-25.4-3.7-24.5,44.5,24.5C-31.8,1145.9-9,1155,100,1164l70,6.4v-89.9c0-149-34.5-193.5-167.2-213.5
		c-111.8-17.2-231.6,17.2-276.1,80.8c-42.7,59.9-53.6,163.5-34.5,324.4c4.2,34.6,9.5,67,15.9,97.7c-19,0.1-38,0.1-57,0.2
		c-3.7-19.2-6.9-37.5-8.9-52.3l-10.9-78.1l-25.4,30c-27.3,32-46.3,64.8-59.1,100.7c-35.5,0.1-71.2,0.2-106.7,0.3
		c2-15.3,4.4-30,7.7-43.9c7.2-30,13.6-75.4,13.6-100c0-92.6,39-195.3,113.6-299.8c49.9-69,163.5-181.7,245.3-241.6
		c79-58.1,224.4-129,311.7-151.7l66.3-16.4l40-81.7c49-100,102.7-161.8,191.7-221.7C617,89.4,790.5,49.4,952.2,94
		c50.9,14.6,64.5,14.6,103.6,4.5c159.9-40.9,368.9-7.2,565.1,90.9c51.7,26.3,74.5,31.8,143.6,36.3c152.6,10,281.6,66.3,532.4,232.6
		c149,99,242.6,171.7,268.9,209.8c7.2,10.9,37.2,34.5,65.4,52.7c65.4,40.9,205.3,182.6,289.8,291.6c36.3,46.3,80.8,96.3,100,109.1
		c38.2,28.1,79,97.2,89,149.9c3.7,20.9,22.7,57.2,45.4,86.2c3,3.9,5.7,7.8,8.5,11.6C3110.8,1369.1,3057.5,1369,3004.2,1368.9z
		 M-354,979.6c-43.6,38.2-92.6,158.1-106.4,258.9l-3.7,29.1l43.6-38.2c40.9-37.2,43.6-41.8,49.9-98.1
		c6.4-61.8,17.2-120.9,28.1-150.9C-335.9,964.1-335.9,964.1-354,979.6z M-101.5,730.5c-34.5,18.2-123.6,100-115.4,107.2
		c0.9,1.8,29.1-3.7,60.9-11.8c70-18.2,219.9-13.6,276.1,8.2c49.9,19.1,49.9,19.1,49.9-11.8c0-47.2-21.8-77.2-74.5-100
		C37.5,697-41.5,700.5-101.5,730.5z M161.1,622.5c-14.6,0-49.9,9.1-79,19.9l-52.7,19.9l46.3,6.4c24.5,2.7,57.2,11.8,72.7,19.9
		c25.4,13.6,26.3,12.7,32.7-5.5c2.7-10.9,5.5-29.1,6.4-40C188.4,626.1,183.8,622.5,161.1,622.5z M976,230.9
		c-25.4-38.2-64.5-52.7-147.2-52.7c-84.5-0.9-154.4,17.2-254.4,67.2c-101.8,49.9-175.4,107.2-227.1,178
		c-48.2,66.3-72.7,128.1-85.4,220.7c-16.4,113.6-10.9,287,8.2,287c3.7,0,16.4-15.4,29.1-33.6c15.4-24.5,24.5-52.7,28.1-96.3
		c7.2-78.1,30-130,74.5-169C449,591.5,486.2,577,547.2,577c27.3,0,49.9-3.7,49.9-8.2c0-3.7-9.1-20.9-20.9-38.2
		c-27.3-40.9-82.7-70.8-149-79.9c-50.9-6.4-51.7-7.2-27.3-17.2c40.9-17.2,98.1-12.7,150.9,11.8l49.9,23.6l38.2-42.7
		c37.2-40,38.2-43.6,27.3-66.3c-13.6-25.4-44.5-56.3-73.6-71.8c-17.2-10-17.2-10,2.7-10.9c30,0,84.5,24.5,111.8,50.9l24.5,23.6
		l70-23.6c39-12.7,98.1-26.3,132.7-29.1C1006,291.7,1011.5,282.7,976,230.9z M1293.1,185.5c-68.1-11.8-173.5-6.4-220.7,10
		c-26.3,9.1-28.1,12.7-19.9,32.7c4.5,12.7,8.2,32.7,8.2,44.5c0,12.7,6.4,22.7,16.4,25.4c30,8.2,179,6.4,233.5-2.7
		c65.4-10.9,149.9-36.3,149.9-45.4C1460.3,237.3,1354.9,196.3,1293.1,185.5z M2496,761.5c-35.5-58.1-273.4-228.1-454.3-324.4
		c-96.3-50.9-190.8-89-240.8-99l-27.3-5.5l36.3,75.4c33.6,69,40,77.2,90.9,106.4c30,17.2,84.5,60.9,121.8,97.2l67.2,67.2l59.9,0.9
		c45.4,1.8,67.2-2.7,86.2-14.6c31.8-20.9,40-14.6,19.9,16.4c-19.1,29.1-63.6,57.2-103.6,64.5c-41.8,8.2-36.3,34.5,7.2,38.2
		c105.4,7.2,245.3,57.2,285.3,100.9c19.1,20.9,43.6,13.6,59.9-17.2C2519.6,840.5,2516.1,793.3,2496,761.5z"/>
</g>
<g transform="translate(0.000000,396.000000) scale(0.100000,-0.100000)">
	<path d="M999.2,1374.4c37.3,35.5,81.4,71.2,99.9,82.1l38.2,20.9l26.3-28.1c13.9-14.8,37-47.9,53.3-74.6c9.3,0,18.6,0,27.9,0
		c-13.5,43.9-40.7,105.5-64.8,140c-8.2,11.8-5.5,31.8,14.6,100c14.6,46.3,31.8,95.4,38.2,109.9c8.2,14.6,9.1,24.5,3.7,24.5
		c-13.6,0-68.1-89-96.3-158.1c-23.6-56.3-28.1-61.8-89-98.1c-53.3-31.2-101.5-72.2-141.6-118.6
		C939.4,1374.3,969.2,1374.4,999.2,1374.4z"/>
	<path d="M3390.2,2835.9c12.2-3.2,26.4-8.7,38.3-14.9c35.5-18.9,43.2-10.7,21.8,15.2C3430.3,2836.1,3410.3,2836,3390.2,2835.9z"/>
	<path d="M3772,2530.2c-13.6,159.9-52.7,246.2-135.4,299.8c-3.8,2.4-7.2,4.7-10.4,6.9c-37-0.2-74-0.3-111-0.4
		c9.5-35.4,15.5-71.3,17.7-107.1l4.5-78.1l-47.2-4.5c-72.7-7.2-109.9-51.7-112.7-139l-1.8-48.2l-34.5,31.8
		c-32.7,29.1-68.1,48.2-89.9,48.2c-5.5,0,19.1-30,54.5-67.2c71.8-75.4,136.3-193.5,161.8-296.2c20.9-80.8,13.6-191.7-18.2-286.2
		c-24.5-71.8-75.4-168.2-89-168.2c-3.7,0-7.2,28.1-7.2,61.8c0,108.2-35.5,197.1-109.1,278.9l-45.4,49.9l0.9,120.9
		c1.8,102.7-0.9,128.1-18.2,174.5c-36.3,100.9-33.6,213.5,8.2,295.2c31.1,60.5,103.3,118.9,159.2,133c-50.4-0.2-100.7-0.3-151.1-0.4
		c-9.5-27.6-22.6-54.5-39.9-83.3c-33.6-56.3-46.3-91.7-55.4-160.8l-6.4-41.8l-34.5,28.1c-29.1,23.6-35.5,33.6-35.5,61.8
		c0,53-22.9,121.4-63.8,195.3c-21.3-0.1-42.7-0.1-64-0.2c26.8-45.9,47.9-93.2,59.7-137.9c21.8-85.4,21.8-85.4-38.2-79
		c-57.2,6.4-58.1-4.5-2.7-22.7c218-69,293.4-335.3,159.9-557c-17.2-29.1-27.3-52.7-22.7-52.7s28.1,18.2,52.7,40.9l43.6,40.9
		l36.3-26.3c48.2-35.5,70.8-68.1,87.2-128.1c32.7-117.2,26.3-234.4-18.2-327.1c-21.8-45.4-126.3-163.5-145.4-163.5
		c-3.7,0-7.2,38.2-7.2,84.5c0,70.8-3.7,91.7-23.6,133.6c-29.1,62.6-71.8,111.8-121.8,141.7c-22.7,12.7-43.6,33.6-49.9,49
		c-6.4,15.4-25.4,39-41.8,54.5c-19.9,17.2-30.9,34.5-30.9,49.9c0,20.9,1.8,22.7,19.1,12.7c23.6-12.7,113.6-6.4,128.1,8.2
		c8.2,8.2,0.9,10.9-29.1,10.9c-46.3,0-90.9,23.6-114.5,59.1c-10.9,16.4-18.2,53.6-22.7,112.7c-3.7,48.2-9.1,102.7-12.7,120.9
		c-6.4,31.8-5.5,31.8,29.1,37.2c49,8.2,92.6,39,128.1,91.7c46.3,70,37.2,85.4-16.4,28.1c-51.7-54.5-83.5-70.8-128.1-66.3
		c-33.6,2.7-34.5,4.5-94.4,139c-18.2,40-44.5,88.1-59.9,107.2l-27.3,33.6l25.4,10c54.5,19.9,130,117.2,130,166.3
		c0,27.3-0.9,27.3-30.9-18.2c-57.2-84.5-112.7-117.2-159.9-93.6c-15.3,7.7-79.1,62.7-161.5,139c-26.5,0-53-0.1-79.5-0.1
		c40.4-33,87.4-79,143.7-139.8c175.4-189.1,253.5-363.6,268-599.7c6.4-95.4,0-317.1-10.9-386.2l-5.5-36.3l22.7,45.4
		c12.7,25.4,24.5,59.9,28.1,77.2c9.1,58.1,11.8,60.9,31.8,36.3c22.7-30,35.5-78.1,29.1-109.9c-11.8-61.8-122.6-128.1-233.5-139.9
		c-59.1-6.4-62.6-6.4-55.4,10c12.7,30.9,15.4,119.1,4.5,152.6c-5.5,18.2-23.6,52.7-40,77.2l-30,44.5l-4.5,154.4
		c-5.5,164.5-5.5,165.3,37.2,165.3c23.6,0,103.6,25.4,121.8,38.2c12.7,10-8.2,11.8-122.6,11.8c-118.1,0-146.2,2.7-188.9,19.1
		l-49.9,18.2l-6.4,62.6c-4.5,42.7-14.6,79.9-33.6,117.2l-28.1,53.6l24.5,32.7c12.7,18.2,46.3,58.1,73.6,89.9
		c43.6,50.9,46.3,55.4,23.6,46.3c-44.5-16.4-80.8-42.7-124.5-89l-40.9-43.6l-43.6,43.6l-42.7,43.6l6.4,57.2
		c2.7,31.8,10.9,82.7,18.2,114.5c2.6,12.3,4.3,23.5,5.3,32.7c-6.3,0-12.5,0-18.8,0c-14-27.3-31.2-74-41.9-117.3
		c-9.1-34.5-16.4-65.4-18.2-67.2c-0.9-1.8-21.8,11.8-46.3,30c-45.4,32.7-102.7,91.7-130.8,132.7l-14.8,21.8h-0.4l7-27.3
		c17.2-64.5,70-124.5,193.5-222.6c142.7-114.5,199.9-225.3,158.1-307.1c-19.1-37.2-84.5-93.6-158.1-136.3
		c-63.7-37.1-178.1-91.5-192.7-91.5c-3.7,0-9.1,21.8-10.9,49c-2.7,29.1-11.8,60.9-24.5,79l-19.9,30.9l6.4-50.9
		c9.1-85.4-11.8-137.2-91.7-227.1c-77.2-87.2-117.2-159.9-135.4-245.3c-8.2-38.2-26.3-83.5-49.9-121.8c-19.9-34.5-37.2-65.4-37.2-69
		c0-3.7-15.4-0.9-33.6,6.4c-37.2,12.7-85.4,14.6-120.9,4.5c-20.9-6.4-19.9-8.2,16.4-18.2c21.8-6.4,54.5-24.5,72.7-41.8l33.6-30
		l1.5-40c25.1,0,50.1,0,75.2,0c9.2,64.3,26.7,111.7,53.9,146.2l17.2,21.8l70.8-14.6c40-8.2,129-17.2,199-19.1
		c70-2.7,140.9-8.2,157.2-13.6c27.3-8.2,29.1-8.2,18.2,5.5c-19.9,24.5-80.8,46.3-161.8,57.2c-180.8,23.6-254.4,48.2-254.4,84.5
		c0,52.7,62.6,189.9,115.4,252.5c60.9,72.7,148.1,79.9,253.5,21.8l59.1-31.8l-16.4,28.1c-19.1,32.7-49.9,56.3-104.5,79l-39,17.2
		l77.2,37.2c154.4,73.6,228.1,81.7,301.7,33.6l35.5-23.6l-13.6,26.3c-7.2,14.6-29.1,39-47.2,53.6l-33.6,27.3l20.9,27.3
		c19.9,28.1,20.9,28.1,57.2,15.4c20.1-7.2,50.1-21.7,67.4-31.7c50.9-31.8,61.8-61.8,61.8-183.5v-107l-69-3.7
		c-38.2-1.8-98.1-10-131.8-18.2c-60.9-13.6-139.9-51.7-139.9-67.2c0-4.5,30,0,66.3,9.1c35.5,10,105.4,19.9,153.6,23.6
		c85.4,5.5,89.9,4.5,126.3-19.1c46.3-30.9,85.4-109.1,78.1-156.3c-7.2-45.4-60.9-97.2-145.4-139c-115.4-56.3-111.8-57.2-119.1,11.8
		c-6.4,63.6-19.1,109.1-39,137.2c-10.9,16.4-11.8,8.2-6.4-59.1c6.1-80.7-3.8-172.7-23.3-229.3c25.2,0,50.4-0.1,75.7-0.1
		c11.8,19.4,33.4,32.8,102,72.1c54.5,30.9,115.4,59.1,136.3,61.8c68.1,10.9,159-41.8,199.9-116.3c3.7-6.8,6.9-12.8,9.6-18.4
		c17.6-0.1,35.2-0.2,52.8-0.2c-10.7,35.5-37.3,90.6-48.7,98.5c-7.2,3.7,2.7,17.2,27.3,35.5c51.7,41.8,141.7,147.2,159.9,188.9
		c8.2,19.1,19.1,34.5,23.6,34.5c3.7,0.2,25.5-18.1,47.3-40.7c57.2-57.2,74.5-119.9,60.9-215.3c-5-35.6-14.3-69.7-27.2-102.1
		c41.5-0.2,83-0.3,124.5-0.4c62.1,32.4,121.1,99.7,163.5,189.7c26.3,55.4,43.6,79.9,70,98.1c46.3,31,53.6,31,74.5-3.5
		c29.1-48.2,32.7-82.7,12.7-127.2c-15.4-36.3-43.6-69-50.9-60.9c-1.8,1.8-5.5,19.9-8.2,40c-1.8,19.9-9.1,49-15.4,63.6
		c-11.8,27.3-11.8,27.3-19.9-27.3c-11.8-88-22.5-132.1-44.1-173.4c55.8-0.3,111.5-0.5,167.3-0.8c36.6,30.3,74.5,95.4,84.1,145.8
		c3.7,20.9,22.7,57.2,45.4,86.2c61.8,80.8,93.6,155.4,131.8,306.2c49,195.3,60.9,319.9,41.8,431.5
		C3787.4,2387.5,3777.4,2472.9,3772,2530.2z M3670.2,1945.2c-5.5-30-20.9-83.5-36.3-119.9c-43.6-104.5-117.2-209.8-117.2-167.2
		c0,4.5-14.6,24.5-31.8,44.5l-31.8,34.5l19.9,49c10.9,27.3,23.6,50.9,27.3,51.7c28.1,11.8,117.2,89,142.7,123.6
		c17.2,22.7,32.7,40.9,33.6,39C3677.4,1999.7,3674.7,1974.3,3670.2,1945.2z M3680.3,2126c-27.3-53.6-139-195.3-153.6-195.3
		c-4.5,0-4.5,15.4,0,34.5c19.9,87.2,5.5,187.2-51.7,354.4c-40.9,119.9-49.9,210.8-23.6,252.5c16.4,25.4,24.5,29.1,88.1,39
		c38.2,5.5,78.1,15.4,89,20.9c19.1,10.9,19.1,10.9-7.2,16.4c-26.3,4.5-27.3,6.4-30,57.2c-1.8,28.1,0.9,51.7,5.5,51.7
		c4.5,0.1,22.7-15.3,40-34.4c95.4-106.4,77.2-268.9-41.8-382.5c-45.4-41.8-48.2-46.3-27.3-46.3c32.7,0,77.2,20.9,115.4,53.6
		l32.7,29.1l6.4-42.7C3730.2,2275.9,3713.8,2192.3,3680.3,2126z"/>
	<path d="M1977.7,2419.3c-112.7,80.9-215.3,209-246.2,306.2c-10.6,34.3-14.6,70.9-12.6,108.1c-78.7,0-157.5,0.1-236.2,0.2
		c-0.2-18.8-10.5-42.6-30.9-72.5c-67.2-98.1-179.9-131.8-261.6-76.3c-21.8,14.6-41.8,22.7-42.7,17.2c-5.5-13.6,42.7-89,66.3-104.5
		l21.8-13.6l-42.7-53.6c-23.6-29.1-59.1-83.5-79.9-122.6l-37.2-69l-11.1,38.9c-6.4,21.8-19.1,49-29.1,61.8l-18.2,22.7l5.5-55.4
		c7.2-68.1-10-196.3-31.8-238.9c-49.9-98.1-172.7-157.2-235.3-113.6c-18.2,13.6-20.9,20.9-16.4,57.2c2.7,22.7,8.2,51.7,11.8,63.6
		c6.4,20.9,5.5,21.8-12.7,8.2c-33.6-22.7-72.7-79-93.6-132.7c-20.9-55.4-33.6-147.2-20.9-147.2c4.5,0,18.2,26.3,29.1,59.1
		c11.8,32.7,24.5,60.9,29.1,63.6c15.4,9.1,83.5-52.7,101.8-91.7c22.7-52.7,18.2-72.7-42.7-188.9c-26.3-50.9-57.2-119.9-69-155.4
		c-33.6-105.4-87.2-143.6-153.6-109.1c-85.4,43.6-119.1,188.9-86.2,370.7c20.9,121.8,59.1,175.4,139,199.9l33.6,10.9l-33.6,2.7
		c-39,3.7-97.2-22.7-123.6-57.2c-10-12.7-26.3-22.7-37.2-22.7c-30.9,0-103.6-27.3-135.4-51.7c-16.4-12.7-41.8-39-56.3-58.1
		c-30-41.8-36.3-33.6-36.3,44.5c0,69,19.1,98.1,98.1,150.9c34.3,22.8,65.3,41.8,68.9,41.8c2.7,0,5.5-9.1,5.5-19.9
		c0-11.8,3.7-26.3,8.2-33.6c5.5-9.1,10.9-2.7,19.1,22.7c15.4,50.9,138.2,303.5,147.2,303.5c3.7,0,7.2-8.2,7.2-17.2
		c0-22.7,42.7-73.6,61.8-73.6c10.9,0,7.2-8.2-13.6-29.1c-40.9-44.5-57.2-72.7-57.2-98.1l0.9-22.7l19.9,22.7
		c60.9,68.1,153.6,123.6,249.8,148.1l48.2,11.8l-25.4,11.8c-17.2,8.2-46.3,9.1-102.7,4.5c-119.1-10.9-136.3-4.5-136.3,49.9
		c0.9,71.8,70,199,170.8,315.3c68.1,78.1,65.4,87.2-8.2,34.5c-47.2-34.5-88.1-85.4-174.5-218c-33.6-49.9-66.3-96.3-73.6-102.7
		c-22.7-19.1-43.6,25.4-43.6,93.6c0.9,72.7,21.8,117.2,112.7,233.5c22,27.9,45.8,58.9,64.9,84.4c-47.1,0-94.1,0-141.2,0.1
		c-6.5-7.2-13-13.1-19.9-18.2c-79-59.9-182.6-201.7-237.1-327.1c-22.7-52.7-38.2-73.6-74.5-102.7c-112.7-89-174.5-208-189.9-365.3
		c-2.7-37.2-13.6-82.7-22.7-100.9c-42.8-84.4-56.3-240.6-30.9-347.9c7.2-30,13.6-75.4,13.6-100c0-32.3,4.9-65.9,14.2-100.2
		c30.3,0.2,60.4,0.3,90.6,0.4c-12.2,36.6-21.8,75.3-26.8,111.6l-3.7,29.1l43.6-38.2c40.9-37.2,43.6-41.7,50-98.1
		c0.2-1.4,0.3-2.8,0.4-4.2c17.8,0.1,35.6,0.2,53.4,0.2c-0.6,42,2.3,90,8.9,144.9c25.4,213.5,92.6,357.1,191.7,407.9
		c26.4,13.6,50,19.1,50,10.9c0-2.7-6.4-30-12.7-61.8c-34.5-149.9-27.3-260.7,24.5-362.6l30-59.9l-29.1-19.1
		c-17.3-11.4-36.6-34.2-52-59.7c20.8,0.1,41.5,0.2,62.3,0.2c33.1,23,67.2,29.5,143.3,35.8l70,6.4V1374c43.9,0.1,87.8,0.2,131.7,0.3
		c0.3,19.1,1.8,37.6,4.7,54.4c29.1,170.8,142.7,319.9,339.8,449.7c81.7,53.6,160.8,98.1,176.2,98.1c3.7,0,16.4-19.1,28.1-42.7
		c26.3-53.6,66.3-105.4,101.8-130.8l27.3-19.1l-31.8,49.9c-38.2,59.1-69,147.2-69,194.4c0.9,72.7,65.4,157.2,149.9,194.4
		c49,21.8,140.9,42.7,201.7,46.3c26.3,1.8,48.2,5.5,48.2,9.1c0,13.6-79.9,27.3-133.6,22.7l-56.3-5.5l17.2,38.2
		c10,20.9,18.2,54.5,18.2,74.5v36.3l-28.1-49.9c-33.6-61.8-61.8-91.7-126.3-136.3c-64.5-43.6-109.1-93.6-130.8-145.4
		c-9.1-22.7-19.1-46.3-22.7-52.7c-9.1-18.2-228.1-131.8-228.1-117.2c0,28.1,59.9,199,93.6,267.1c87.2,177.2,214.4,281.6,365.3,299
		c27.3,3.7,47.2,9.1,45.4,13.6c-2.7,3.7-27.3,11.8-53.6,17.2l-49,10l11.8,42.7c26.3,97.2,63.6,157.2,119.1,188.9
		c40.9,23.6,58.1,22.7,58.1-3.7c0-8.2,19.9-55.4,44.5-106.4c23.6-49.9,49-107.2,55.4-127.2c16.4-52.7,59.9-135.4,78.1-150.9
		c13.6-11.8,14.6-10.9,8.2,10c-12.7,39-21.8,85.4-18.2,89.9c1.8,1.8,19.1-10,38.2-26.3c36.3-31.8,141.7-85.4,158.1-79.9
		C2014.9,2388.5,2000.4,2403,1977.7,2419.3z M301.5,2481.3c40,90.9,105.4,190.8,169,255.3c35.5,36.3,68.1,66.3,71.8,66.3
		c2.6,0.1,1.8-5.4-2.8-10.8c-92.6-118.1-129.9-192.6-136.3-274.4c-4.5-56.3-5.5-58.1-33.6-62.6c-15.4-2.7-41.8-8.2-57.2-11.8
		l-30-5.5L301.5,2481.3z M57.9,2051.6c14.6,156.3,94.4,256.2,255.3,321.6c88.1,35.5,109.1,37.2,128.1,8.2
		c13.6-19.9,11.8-27.3-25.4-119.1l-40.9-98.1l-58.2-24.5c-67.2-29.1-128.9-65.4-161.8-96.3c-12.7-11.8-40.9-27.3-62.6-35.5l-40-13.6
		L57.9,2051.6z M141.5,1718.1c-11.8-42.7-27.3-112.7-32.7-155.4l-10.9-78.1l-25.4,30c-51.7,60.9-75.4,123.6-79,208
		c-3.7,86.2,7.2,139,36.3,176.2c19.9,25.4,68.1,59.1,85.4,59.1c5.5,0,12.7-22.7,15.4-52.7c1.8-29.1,10.9-66.3,19.1-81.7
		C163.2,1796.2,163.2,1790.8,141.5,1718.1z"/>
	<path d="M964.5,2713.9l-16.4-32.7l-20.9,54.5c-12,31-17.9,58.4-20.4,97.9c-14.2,0-28.4,0-42.5,0c5.6-44.7,17.8-91.8,36.6-138.7
		c26.3-65.4,26.3-69,16.4-137.2c-6.4-38.2-8.2-81.7-3.7-96.3c6.4-23.6,8.2-20.9,19.1,32.7c16.4,79.9,53.6,185.4,87.2,244.3
		c14.6,26.3,25.4,49.9,23.6,50.9C1035.3,2797.5,979.9,2743.9,964.5,2713.9z"/>
</g>
<g transform="translate(0.000000,396.000000) scale(0.100000,-0.100000)">
	<path d="M3420.3,2824.1c0.8,3.9,1.3,7.6,1.3,11c0,25.7-0.9,26.9-26.2-11C3403.8,2824.1,3412.1,2824.1,3420.3,2824.1z"/>
	<path d="M2760.8,2823.8c0.4,2,0.9,3.9,1.2,5.7c6.4,30.9,8.2,56.3,4.5,56.3c-7,0-21.1-26.5-34.9-62
		C2741.3,2823.9,2751,2823.9,2760.8,2823.8z"/>
	<path d="M1163.8,2824.1c5.3,4.5,9.1,7.3,10.1,7.3c2,0.1,1.9-3.2-0.4-7.2c19.9,0,40,0.1,59.9,0.1c25.6,33.2,48.8,64.5,59.3,80
		c50.9,74.5,111.8,134.5,159,158.1c74.5,37.2,93.6,30.9,66.3-20.9c-28-54.7-32.9-132.9-15.8-216.9c13.5,0,26.8,0,40.3,0
		c-3.4,21-5,44.6-5.5,75.2c-0.9,71.8,1.8,88.1,24.5,132.7c27.3,57.2,70,91.7,130.8,108.2c47.2,11.8,70.8,6.4,160.8-38.2
		c61.8-30.9,80.8-36.3,132.7-36.3c65.4-0.9,145.4,20.9,165.3,44.5c10.9,13.6,9.1,14.6-10.9,8.2c-12.7-3.7-55.4-9.1-95.4-11.8
		c-128.1-8.2-188.9,23.6-213.5,110.9c-12.7,45.4-27.3,40.9-27.3-9.1v-27.3l-70-0.9c-39-0.9-80.8-3.7-93.6-4.5
		c-47.2-7.2-73.6,110.9-37.2,169.9c23.6,38.2,83.5,85.4,164.5,130c37.3,19.9,70.9,37.1,74.6,37.1c3.7,0-3.7-17.2-15.4-38.2
		c-41.8-72.7-23.6-69,57.2,10c142.7,141.7,303.5,198.1,462.4,164.5c67.2-14.6,70.8-19.1,49-55.4c-10.9-17.2-19.1-46.3-19.1-64.5
		c0-40-15.4-45.4-41.8-15.4c-28.1,32.7-85.4,53.6-144.5,53.6c-30,0-60.9-4.5-68.1-9.1c-10-6.4-3.7-9.1,23.6-9.1
		c49.9,0,115.4-23.6,140.9-50.9l20.9-22.7l-40.9-38.2c-21.8-20.9-49-49.9-60.9-64.5l-19.9-25.4l-27.3,22.7
		c-28.1,23.6-31.8,25.4-97.2,42.7c-35.5,9.1-39,12.7-39,37.2c0,14.6,6.4,39,13.6,53.6c8.2,15.4,10.9,27.3,6.4,27.3
		c-18.2,0-49-46.3-53.6-80.8c-4.5-30.9-9.1-38.2-29.1-42.7c-44.5-10-114.5-33.6-159.9-55.4c-24.5-10.9-57.2-20.9-70.8-20.9
		c-14.6,0-23.6-3.7-19.9-9.1c10-15.4,61.8-10,132.7,13.6c133.6,46.3,248,46.3,287,0c30.9-35.5,26.3-51.7-19.9-76.3
		c-21.8-11.8-46.3-30.9-53.6-41.8l-13.6-20.9l65.4,23.6c54.5,19.9,81.7,24.5,158.1,24.5c69,0,89.9,2.7,81.7,10
		c-14.6,13.6-67.2,30.9-92.6,30.9c-11.8,0-25.4,6.4-31.8,13.6c-22.7,28.1,56.3,110.9,139,145.4c17.2,7.2,59.1,17.2,92.6,22.7
		c69,10.9,121.8,34.5,138.2,62.6c10.9,17.2,10.9,17.2-20.9,4.5c-19.1-8.2-52.7-12.7-83.5-10.9c-48.2,2.7-51.7,4.5-54.5,26.3
		c-3.7,34.5,45.4,82.7,111.8,108.2c79.9,30.9,213.5,36.3,271.6,10.9c51.7-23.6,54.5-10.9,5.5,24.5c-40,29.1-39,30.9,25.4,63.6
		c62.4,31.4,156,46,183.2,27.9c11.8-8.2,11.8-9.1,0-9.1c-16.4-0.9-42.7-22.7-70.8-58.1c-28.1-37.2-24.5-47.2,7.2-20.9
		c31.8,27.3,117.2,60.9,154.4,60.9c14.6,0,37.2-4.5,51.7-10c28.1-10.9,88.1-53.6,81.7-59.1c-1.8-1.8-34.5-11.8-72.7-20.9
		c-83.5-21.8-131.8-45.4-199-97.2c-28.1-22.7-67.2-47.2-86.2-55.4c-41.8-17.2-156.3-23.6-210.8-10.9c-21.8,4.5-41.8,7.2-43.6,4.5
		c-1.8-1.8,11.8-12.7,30.9-24.5c42.7-25.4,47.2-32.7,40.9-57.2c-9.1-34.5-48.2-77.2-89.9-97.2c-40-19.1-42.7-19.1-89-4.5
		c-64.5,19.9-72.7,19.1-55.4-5.5c8.2-10.9,14.6-35.5,14.6-54.5c0-28.1-6.4-40.9-35.5-70c-47.2-47.2-100-59.9-146.2-35.5
		c-17.2,9.1-39,16.4-48.2,16.4c-14.6,0-14.6-1.8,3.7-26.3c25.4-35.5,17.2-67.2-27.3-109.9c-50.9-48.2-114.5-64.5-278-70
		c-123.6-4.5-216.2,2.7-285.3,21.8c-15.4,3.7-19.9,2.7-15.4-5.5c10-15.4,74.5-46.3,97.2-46.3c17.2,0,14.6-4.5-19.1-37.2
		c-20.9-19.9-36.3-39-33.6-40.9c1.8-1.8,26.3,6.4,53.6,18.2c72.7,31.8,150.9,45.4,239.8,39c100.8-6.2,132.7-33.7,103.1-95.2
		c49.2,0,98.3,0,147.4-0.1c7.8,2.2,13.6,2.2,17.6,0c27.3,0,54.6-0.1,81.9-0.1c-6,98.2,32.7,204.5,108.5,284.1
		c72.7,76.3,199,132.7,199,87.2c0-24.5,19.1-73.6,28.1-73.6c4.5,0,8.2,12.7,8.2,27.3c0,65.4,52.7,179,107.2,229.9
		c29.9,29.2,119.8,65.5,119.8,49.2c0-0.9-8.2-25.4-18.2-52.7c-28.1-80.8-40-201.7-29.1-296.2c5.5-43.6,8.2-80.8,6.4-82.7
		c-0.9-1.8-37.2,1.8-80.8,7.2c-74.5,9.1-159,5.5-185.4-9.1c-7.2-3.7,18.2-9.1,55.4-11.8c72.7-6.4,186.2-39,248.9-72.7
		c32.7-17,70.2-45.6,114.9-87.3c25.9,0.1,51.8,0.2,77.8,0.2c-36.4,33-78.3,71.9-122.6,114.3c-48.2,44.5-40,110.9,19.9,166.3
		c53.6,49,127.2,82.7,196.3,89c49,3.7,53.6,6.4,39,17.2c-10,7.2-40.9,11.8-76.3,11.8c-67.2,0-130.8-24.5-192.6-73.6l-34.5-27.3
		l-6.4,23.6c-3.7,13.6-3.7,64.5-1.8,112.7c3.7,75.4,9.1,98.1,31.8,147.2c46.3,99,136.3,171.7,248.9,203.5
		c33.6,9.1,78.1,12.7,141.7,10.9c82.6-2.8,98.9-6.4,151.6-32.8c79-39,122.6-91.7,74.5-91.7c-32.7,0-67.2-32.7-79-74.5
		c-5.5-21.8-25.4-53.6-47.2-77.2l-38.2-40l-31.8,43.6c-28.1,38.2-98.1,89.9-108.2,79.9c-1.8-2.7,11.8-20.9,30.9-41.8
		c51.7-57.2,71.8-109.9,71.8-189.9c0.9-74.5,5.5-70.8-62.6-57.2c-19.9,4.5-50.9,5.5-68.1,2.7l-31.8-4.5l56.3-21.8
		c98-36.7,213.5-162,277.5-289.8c21,0,41.9,0.1,62.9,0.1c-26.5,55.3-63.7,114.9-110.5,174.3c-74.5,94.4-79,117.2-27.3,144.5
		c42.7,21.8,137.2,15.4,221.7-14.6l61.8-22.7l-25.4,26.3c-47.2,49.9-177.2,82.7-255.3,64.5c-37.2-9.1-39-8.2-39,12.7
		c0,11.8,13.6,37.2,31.8,56.3c17.2,19.1,43.6,61.8,58.1,94.4c14.6,32.7,31.8,63.6,39,67.2c6.4,4.5,34.5,10.9,61.8,13.6
		c27.3,2.7,50.9,6.4,52.7,7.2c0.9,0.1,0.9-1.8,0-5.4c-1.8-4.5,18.2-26.3,43.6-50.9c79-72.7,122.6-202.6,123.6-369.8
		c1.5-81.9-9-138.6-37.3-197.8c30.1,0,60.2,0,90.3,0c34,25.7,70.8,42.8,99.5,43.2c12.7,0,38.2-8.2,57.2-18.2
		c42.7-22.7,45.4-6.4,5.5,32.7c-25.4,24.5-32.7,26.3-95.4,26.3c-61.8,0-66.3,1.8-61.8,17.2c9.1,27.3,4.5,207.1-5.5,241.6
		c-18.2,62.8-8.3,61,67.2-9.9c96.3-90.1,161.9-209.6,185.4-333c51.5,0,102.8-0.1,154.3-0.1c-12.4,12.6-26.2,24-41.6,34.1
		c-35.5,22.7-47.2,36.3-56.3,66.3c-19.1,67.2-69,163.5-108.2,213.5c-42.7,52.7-119.9,118.1-184.4,153.6
		c-27.3,14.6-53.6,40-74.5,70.8c-30,46.3-94.4,105.4-125.4,116.3c-8.2,2.7-30.9,27.3-50.9,54.5c-57.2,77.2-158.1,132.7-265.3,147.2
		c-42.7,5.5-56.3,12.7-96.3,49.9c-54.5,51.7-113.6,82.7-205.3,109.9c-53.6,15.4-97.2,19.9-222.6,22.7
		c-86.2,1.8-174.5,7.2-195.3,12.7c-52.8,11.9-100.1,10.1-175.4-6.2c-42.7-10-101.8-13.6-181.7-12.7
		c-140.9,2.7-216.2-13.6-344.3-74.5c-125.4-59.9-218-126.3-311.7-223.5c-109.9-113.6-120.9-125.4-221.7-223.5
		c-104.5-101.8-190.7-220.8-259.9-359.8c-40-80.8-60.9-111.8-88.1-131.8c-7.8-5.9-15.9-12.7-24-20.2
		C1106,2824.1,1134.9,2824.1,1163.8,2824.1z M2600.3,3830c19.9,0,59-5.5,86.2-13.6c33.6-10,66.3-13.6,106.4-10
		c30.9,3.7,56.3,3.7,56.3,1.8c0-1.8-18.2-11.8-39-20.9c-21.8-10-47.2-25.4-57.2-35.5c-12.7-12.7-40-19.9-106.4-28.1l-89.9-10.9
		l-39,42.7c-21.8,24.5-40,46.3-40.9,49C2476.7,3812.7,2553.9,3828.2,2600.3,3830z M1859.7,3649.2c59.1,40.9,185.4,102.7,228.9,112.7
		c25.4,6.4,25.4,5.5,11.8-14.6c-8.2-10.9-14.6-29.1-14.6-39c0-17.2,1.8-16.4,20.9,4.5c33.6,39,56.3,54.5,112.7,78.1
		c70.8,29,130.8,28.1,190.8-1c39-19.9,93.6-71.8,93.6-89.9c0-1.8-11.8-12.7-26.3-22.7l-26.3-19.1l-52.7,19.1
		c-40,14.6-75.4,19.1-139.9,19.1c-109.1,0-181.7-21.8-275.3-82.7c-45.4-30-91.7-50.9-139-64.5c-40-10.9-93.6-30.9-119.1-45.4
		c-26.3-13.6-48.2-22.7-48.2-18.2C1677.2,3498.4,1801.6,3610.2,1859.7,3649.2z M1357.4,3130.4c59.1,82.7,161.8,200.8,175.4,200.8
		c4.5-0.1,8.1-21.9,8.1-47.3c0-31.8,8.2-64.5,22.7-97.2c12.7-27.3,20.9-50.9,18.2-54.5c-2.7-2.7-29.1-5.5-57.2-5.5
		c-82.7-0.9-147.2-48.2-268.9-199c-19.1-23.6-36.3-40.9-39-39C1210.2,2896.1,1300.1,3049.6,1357.4,3130.4z"/>
	<path d="M2506.4,2824.2c5.5,0,11.3,0,16.8,0c-4.4,5.6-8.5,11.1-12,16.2l-15.4,22.7l7.2-28.1
		C2504,2831.4,2505.2,2827.8,2506.4,2824.2z"/>
</g>
</svg>
