<?xml version="1.0" standalone="no"?>
<!DOCTYPE svg PUBLIC "-//W3C//DTD SVG 20010904//EN"
 "http://www.w3.org/TR/2001/REC-SVG-20010904/DTD/svg10.dtd">
<svg version="1.0" xmlns="http://www.w3.org/2000/svg"
 width="1024.000000pt" height="1024.000000pt" viewBox="0 0 1024.000000 1024.000000"
 preserveAspectRatio="xMidYMid meet">
<metadata>
Created by potrace 1.11, written by Peter Selinger 2001-2013
</metadata>
<g transform="translate(0.000000,1024.000000) scale(0.100000,-0.100000)"
fill="#000000" stroke="none">
<path d="M2320 9886 c-36 -8 -78 -19 -94 -26 -16 -6 -91 -13 -165 -15 -232 -7
-374 -59 -442 -164 l-15 -24 -47 18 c-118 45 -273 -42 -344 -194 -26 -55 -31
-60 -113 -102 -150 -77 -286 -235 -330 -384 -10 -36 -20 -45 -76 -74 -146 -76
-264 -282 -264 -462 0 -43 -8 -74 -35 -132 -47 -102 -63 -197 -46 -279 13 -66
45 -130 80 -162 12 -11 21 -31 21 -48 0 -72 93 -247 158 -299 25 -19 26 -25
27 -112 0 -79 4 -100 27 -151 16 -32 41 -74 58 -92 16 -19 30 -42 30 -52 0
-31 56 -168 95 -232 66 -108 170 -198 265 -229 21 -6 51 -29 73 -56 73 -87
240 -145 421 -145 l94 0 4 -87 c5 -108 33 -169 109 -237 100 -90 226 -134 419
-146 69 -4 150 -15 180 -25 65 -19 145 -15 189 11 17 10 33 16 36 13 3 -3 23
-53 45 -111 37 -98 70 -219 99 -360 13 -63 41 -110 84 -142 25 -18 43 -21 135
-21 94 0 113 3 157 25 96 48 111 103 80 306 -12 77 -12 112 -4 159 6 33 13 63
15 67 2 4 26 -3 52 -15 37 -17 67 -21 137 -22 78 0 96 3 140 26 28 15 58 36
68 47 19 20 19 20 63 2 82 -36 200 -53 309 -47 187 11 318 53 401 129 66 60
100 117 135 228 51 159 39 270 -38 330 l-28 22 30 21 c71 51 124 131 125 188
0 16 21 54 51 95 97 129 149 276 149 418 0 51 5 87 16 108 78 150 73 320 -12
466 -24 41 -26 55 -29 181 -6 213 -43 332 -134 420 -29 28 -60 73 -78 113 -88
189 -246 344 -416 407 -32 12 -81 40 -108 64 -70 60 -165 115 -233 135 -48 14
-63 24 -86 58 -72 104 -230 218 -398 287 -70 28 -112 53 -150 88 -107 97 -222
146 -377 159 -55 5 -138 20 -185 35 -105 32 -238 40 -330 21z m254 -91 c85
-18 201 -71 227 -103 10 -14 19 -34 19 -45 0 -34 -79 -101 -144 -121 l-59 -19
-63 33 c-34 17 -67 29 -72 27 -4 -3 20 -35 54 -72 64 -66 137 -194 150 -261
l6 -32 -123 -4 c-95 -4 -137 -10 -179 -26 -30 -12 -56 -22 -56 -22 -1 0 3 21
8 48 10 53 2 135 -17 171 -11 23 -13 20 -19 -35 -9 -76 -31 -161 -56 -220
l-20 -46 -21 26 c-22 28 -57 51 -66 43 -2 -3 6 -25 18 -49 33 -64 37 -158 9
-230 -24 -65 -101 -187 -156 -247 -20 -23 -34 -45 -30 -49 4 -4 47 14 95 40
110 59 187 74 313 58 220 -26 320 -120 321 -298 1 -194 -99 -352 -276 -436
-71 -34 -376 -135 -471 -156 -56 -12 -192 -15 -220 -4 -14 5 -17 4 -11 -5 16
-27 89 -51 154 -51 l65 0 -31 -32 c-40 -43 -103 -129 -103 -140 0 -18 67 27
133 88 74 70 145 110 252 143 211 65 358 40 483 -82 29 -29 51 -45 48 -37 -2
8 -7 27 -10 43 -4 15 -23 45 -42 67 l-36 40 120 0 c125 0 263 -19 324 -44 47
-20 97 -63 109 -93 21 -56 -41 -110 -176 -153 -38 -13 -113 -45 -167 -71 l-96
-48 -67 21 c-37 12 -105 40 -151 63 -46 22 -84 37 -84 32 0 -4 20 -29 44 -55
42 -45 90 -75 160 -102 43 -16 20 -31 -56 -37 -72 -6 -201 16 -317 52 -42 14
-80 25 -85 25 -20 0 41 -53 87 -77 55 -27 184 -63 231 -63 23 0 27 -3 18 -12
-9 -9 -78 -13 -231 -16 -240 -5 -332 6 -437 53 -66 29 -138 80 -159 112 l-16
24 50 -7 c89 -12 94 3 16 44 -39 21 -90 51 -115 68 -56 39 -152 139 -173 181
-55 106 -12 229 103 289 36 19 98 22 295 14 150 -6 204 22 314 167 79 102 133
152 219 200 52 30 55 33 27 33 -33 0 -100 -28 -146 -61 -27 -19 -29 -19 -29
-2 0 10 7 47 15 82 9 35 14 66 11 68 -10 11 -49 -58 -67 -121 -49 -170 -75
-208 -177 -258 -62 -31 -73 -33 -167 -32 -55 0 -136 2 -180 4 -62 3 -87 0
-113 -13 -18 -10 -37 -15 -41 -12 -18 11 -41 100 -41 159 0 139 109 239 335
307 90 27 90 27 52 34 -67 13 -169 0 -233 -29 -54 -25 -60 -26 -71 -10 -32 43
-28 267 6 365 28 82 48 116 100 172 91 99 229 162 385 176 78 7 80 8 51 21
-42 18 -169 16 -240 -5 -75 -21 -152 -60 -187 -93 -35 -32 -35 -26 1 79 49
145 97 226 191 318 69 68 149 109 229 117 55 6 60 5 75 -19 16 -23 16 -28 0
-66 -13 -34 -21 -41 -43 -41 -73 0 -203 -63 -237 -115 -25 -38 -12 -40 42 -5
115 72 258 89 394 45 23 -7 24 -6 11 9 -18 21 -84 56 -106 56 -14 0 -15 6 -8
33 4 17 7 51 6 73 -2 41 -1 42 43 54 64 18 167 8 244 -24 36 -15 72 -29 80
-32 8 -3 -7 15 -33 40 -78 73 -180 93 -302 59 -110 -30 -170 -12 -89 28 102
49 246 62 378 34z m-553 -71 c-97 -47 -126 -68 -191 -133 l-76 -76 -47 48
c-26 27 -47 52 -47 56 0 17 93 93 136 111 66 29 169 48 259 49 l79 1 -113 -56z
m967 -10 c101 -38 172 -94 221 -176 27 -46 22 -47 -27 -9 -80 64 -233 119
-289 105 -17 -5 -20 -2 -16 18 2 12 -5 40 -16 61 l-20 39 42 -7 c23 -4 70 -18
105 -31z m-1439 -104 c43 -12 84 -50 127 -117 39 -60 40 -66 15 -101 -10 -15
-29 -55 -41 -90 l-23 -63 -17 28 c-37 59 -118 114 -167 113 -15 -1 -14 -4 7
-21 98 -79 137 -138 147 -219 5 -41 1 -59 -25 -114 -17 -36 -33 -66 -36 -66
-3 0 -27 15 -53 34 -27 18 -66 43 -88 54 -98 50 -139 121 -140 237 0 69 4 89
29 140 36 72 130 170 177 183 45 13 49 14 88 2z m1493 -69 c62 -30 184 -135
254 -219 65 -77 101 -148 111 -217 l6 -48 -34 19 c-54 31 -175 156 -211 220
l-33 59 -3 -33 c-6 -57 35 -119 159 -242 123 -122 162 -181 179 -270 15 -78 6
-82 -54 -23 -54 51 -125 94 -178 107 -44 10 -32 -5 44 -59 83 -59 162 -142
191 -202 19 -38 23 -42 46 -35 54 15 136 6 191 -22 29 -15 56 -24 59 -20 3 3
-11 21 -32 39 -43 37 -113 65 -162 65 l-32 0 -6 83 c-4 45 -9 102 -13 127 -8
65 9 84 74 83 62 -1 144 -37 202 -89 108 -98 213 -300 321 -619 28 -84 34 -95
37 -68 3 29 -15 119 -33 164 -5 14 2 13 41 -7 26 -13 50 -22 52 -19 3 2 -13
24 -35 48 -51 55 -81 107 -137 236 -25 57 -60 128 -78 159 -38 64 -155 192
-203 222 -24 15 -38 36 -55 81 -22 62 -81 139 -106 139 -9 0 0 -26 27 -77 21
-43 39 -83 39 -90 0 -9 -15 -13 -46 -13 -50 0 -76 -11 -116 -47 l-26 -25 -7
32 c-4 17 -10 68 -15 113 -10 105 -30 153 -105 252 -51 67 -63 90 -69 133 -4
29 -4 52 0 52 3 0 28 -16 55 -36 59 -43 131 -121 176 -192 19 -30 37 -52 39
-49 7 7 -15 96 -32 128 -19 37 -9 37 49 -2 65 -43 118 -113 189 -253 62 -120
64 -123 223 -278 89 -87 168 -169 175 -183 18 -33 31 -32 21 3 -19 66 -60 122
-175 241 -109 113 -196 221 -196 244 0 4 12 4 28 1 82 -20 196 -112 262 -216
21 -32 65 -84 97 -116 101 -97 175 -223 245 -412 l38 -105 -6 60 c-16 162
-119 366 -261 517 -92 98 -86 114 17 47 133 -86 240 -213 296 -352 24 -58 40
-84 62 -97 40 -25 79 -77 104 -142 17 -43 22 -81 26 -200 2 -82 2 -148 -1
-148 -2 0 -24 9 -48 19 -24 11 -66 23 -94 26 l-50 7 41 42 c64 67 92 194 60
270 -24 56 -31 48 -31 -37 0 -64 -5 -91 -22 -123 -29 -55 -84 -101 -129 -110
-59 -11 -70 2 -66 83 8 143 -56 316 -133 367 -23 15 -23 15 5 -48 91 -199 69
-416 -46 -471 -47 -22 -125 -16 -190 15 -69 34 -80 58 -74 159 13 239 -2 343
-71 488 -37 78 -76 123 -106 123 -10 0 -6 -10 13 -32 65 -78 99 -200 99 -358
-1 -91 -5 -131 -24 -190 -28 -93 -85 -191 -144 -248 l-44 -44 -5 139 -5 138
30 34 c26 31 57 88 57 107 0 4 -22 -14 -50 -40 -27 -25 -51 -46 -54 -46 -3 0
-15 22 -27 50 -12 27 -39 66 -60 85 -41 36 -75 49 -47 18 84 -95 126 -368 77
-498 -40 -108 -179 -215 -278 -215 -56 0 -53 18 9 70 56 47 74 76 84 135 l6
40 -22 -30 c-98 -129 -211 -150 -310 -57 -39 36 -38 81 3 122 18 17 64 53 103
80 93 63 129 102 162 175 36 78 45 194 20 260 -29 75 -115 135 -193 135 -53 0
-77 -16 -37 -25 110 -24 168 -72 180 -151 9 -64 -1 -144 -24 -190 -23 -45
-103 -124 -150 -148 l-32 -17 0 45 c0 62 -28 140 -66 184 -17 20 -35 34 -38
31 -3 -3 4 -28 16 -55 13 -29 23 -78 26 -122 4 -66 2 -78 -27 -137 -18 -35
-48 -77 -67 -94 -101 -82 -223 -114 -276 -71 -42 32 -38 78 12 152 48 73 88
194 95 291 13 156 31 184 155 247 84 42 140 97 140 136 l0 26 -24 -29 c-63
-75 -184 -107 -296 -79 -78 20 -227 90 -309 145 -33 23 -62 41 -65 41 -14 0
-4 -31 18 -57 l24 -29 -97 1 c-53 0 -113 -4 -135 -8 l-38 -8 33 47 c73 101
200 182 300 192 27 2 49 8 49 12 0 4 -20 13 -45 20 -56 16 -120 7 -180 -25
-49 -26 -51 -25 -34 26 33 97 144 149 317 149 176 -1 341 -67 475 -190 42 -39
77 -69 77 -65 0 17 -45 90 -77 125 -50 56 -115 102 -213 151 -47 23 -86 43
-88 44 -14 12 -43 166 -38 199 24 146 174 216 318 147z m-1852 -250 c0 -41 19
-118 45 -182 5 -14 -6 -17 -76 -22 -45 -3 -86 -10 -92 -16 -8 -8 -6 -11 9 -11
106 -2 220 -32 305 -83 77 -46 104 -102 103 -217 0 -95 -22 -155 -73 -204 -27
-26 -28 -26 -66 -10 -22 9 -63 31 -92 50 -29 19 -56 34 -58 34 -14 0 -1 -24
30 -59 l35 -39 -52 -12 c-29 -7 -82 -24 -118 -38 -45 -17 -87 -25 -137 -26
-40 0 -73 -4 -73 -7 0 -14 68 -33 115 -32 27 0 87 10 132 22 113 29 195 37
232 21 41 -17 54 -62 49 -165 -5 -105 -39 -179 -100 -221 -38 -27 -49 -29
-127 -29 -99 1 -147 20 -199 80 -34 39 -40 33 -18 -18 13 -31 70 -90 98 -99
28 -11 -5 -22 -65 -21 -122 1 -266 77 -373 199 -31 36 -59 63 -62 60 -3 -3 9
-35 27 -71 23 -47 48 -77 87 -109 l54 -45 -55 -11 c-30 -6 -57 -15 -60 -19 -2
-5 30 -11 73 -14 42 -3 106 -15 142 -27 102 -33 194 -37 278 -11 150 45 211
19 251 -109 13 -39 40 -108 61 -153 50 -109 65 -179 52 -240 -5 -26 -6 -47 -3
-47 13 0 49 45 63 78 l13 32 33 -30 c27 -26 32 -38 32 -76 0 -85 -33 -119
-113 -116 -94 4 -169 62 -261 201 -35 53 -89 128 -121 166 -63 78 -89 123
-100 173 -9 44 -23 29 -27 -28 l-3 -45 -80 2 c-168 3 -380 122 -445 249 -21
41 -25 63 -25 135 0 78 3 91 37 160 21 40 49 86 62 101 46 52 118 98 183 118
l66 20 29 -27 c15 -14 30 -25 32 -22 2 2 -3 36 -11 74 -22 103 -13 307 17 400
44 137 134 255 260 341 36 24 68 44 72 44 5 0 8 -22 8 -49z m-425 -662 l7 -46
-33 -7 c-50 -9 -150 -59 -191 -95 -20 -17 -39 -31 -42 -31 -4 0 -4 21 -1 48
21 160 94 289 210 370 l30 21 6 -107 c4 -59 10 -128 14 -153z m3860 -683 c66
-20 125 -60 155 -104 22 -32 25 -46 25 -132 0 -82 -3 -102 -25 -144 -45 -87
-127 -131 -206 -112 l-27 7 21 22 c40 43 72 128 71 192 l0 60 -25 -54 c-55
-123 -146 -220 -233 -249 -34 -12 -141 -17 -141 -6 0 3 13 22 29 42 36 47 53
92 49 127 -3 25 -6 23 -46 -34 -80 -114 -217 -199 -338 -209 l-64 -5 0 68 c0
53 -5 77 -25 114 -14 26 -35 53 -47 60 -19 12 -20 11 -14 -11 3 -12 11 -57 18
-98 13 -91 2 -144 -42 -194 -64 -72 -171 -95 -440 -96 -142 0 -189 -4 -245
-19 -68 -19 -71 -19 -90 -2 -23 22 -59 41 -75 41 -6 0 7 -27 30 -60 22 -32 56
-89 75 -126 32 -63 34 -65 41 -40 3 14 1 47 -5 73 -10 36 -9 48 0 54 22 13
147 20 349 17 163 -1 212 2 297 19 l103 20 10 -36 c6 -20 16 -44 24 -54 12
-15 14 -9 18 47 9 109 52 156 144 156 53 0 97 -17 140 -53 41 -34 47 -34 42 4
-4 23 1 34 20 50 56 44 147 47 261 8 67 -23 64 -23 51 2 -6 11 -32 33 -56 49
-42 26 -44 29 -26 39 13 7 45 8 81 4 69 -7 79 -20 67 -91 -33 -187 -147 -307
-303 -320 l-62 -5 8 30 c10 35 0 109 -20 143 -13 24 -14 22 -19 -40 -9 -110
-55 -165 -181 -218 -79 -32 -205 -62 -264 -62 -32 0 -35 2 -25 19 13 25 13 82
0 116 -8 21 -6 32 10 55 11 15 24 40 30 55 l10 27 -41 -34 c-148 -121 -268
-168 -426 -168 -46 0 -83 -4 -83 -9 0 -20 77 -45 148 -47 108 -4 203 29 275
94 l27 26 0 -35 c0 -43 -30 -94 -68 -113 -49 -25 -148 -46 -221 -46 -55 0 -89
7 -149 29 -42 17 -89 33 -104 37 -35 8 -115 -11 -146 -35 -23 -17 -22 -17 60
-13 50 2 95 -1 113 -8 l30 -12 -65 -59 c-36 -32 -62 -59 -59 -59 19 0 99 34
131 56 35 24 38 25 97 13 76 -15 226 -7 301 16 30 9 114 20 185 25 72 5 145
13 164 19 19 6 37 8 40 6 2 -3 -12 -23 -33 -44 -48 -49 -139 -94 -231 -114
-117 -26 -408 -50 -545 -45 -166 7 -223 27 -302 110 -32 33 -58 63 -58 67 0 5
13 14 30 21 56 23 56 37 -2 45 -202 28 -285 158 -210 328 62 141 310 293 580
357 31 7 85 33 130 63 112 73 168 97 228 97 56 0 104 -16 147 -50 33 -26 37
-24 30 12 -8 40 -74 96 -123 104 -22 4 -42 10 -45 13 -12 20 112 121 191 158
71 32 194 43 283 23 93 -20 212 -83 279 -147 32 -32 66 -69 75 -82 22 -33 29
-23 16 21 -15 56 -68 128 -131 178 -52 41 -55 46 -36 53 79 29 293 31 383 3z
m-3947 -226 l22 -15 -18 -58 -19 -59 -35 41 c-36 42 -82 127 -93 174 -7 27 -6
27 56 -20 36 -26 74 -55 87 -63z m387 -115 c39 -42 88 -103 108 -136 l37 -59
-50 0 c-78 0 -186 28 -275 70 -106 51 -135 80 -135 136 0 72 -3 70 128 67
l117 -2 70 -76z m-179 -191 c84 -39 193 -71 276 -80 49 -6 73 -15 122 -49 34
-23 76 -50 95 -60 l33 -17 -48 -23 c-27 -12 -60 -34 -73 -48 l-23 -26 48 15
c186 58 303 76 410 64 157 -19 258 -127 240 -258 -9 -65 -34 -99 -85 -119 -41
-16 -50 -16 -122 -1 -46 10 -118 36 -176 64 -54 26 -102 50 -108 52 -20 9 71
-80 103 -100 19 -11 30 -24 25 -29 -5 -5 -35 -20 -68 -33 -85 -35 -48 -45 61
-18 78 19 88 20 127 6 23 -8 68 -18 99 -21 32 -3 58 -9 58 -13 0 -16 -94 -93
-135 -111 -121 -54 -342 -23 -428 59 -44 41 -67 95 -75 175 l-7 72 -19 -28
c-10 -15 -21 -48 -24 -72 -2 -25 -8 -47 -11 -49 -15 -9 -117 36 -167 74 -63
47 -145 159 -174 237 -11 31 -19 57 -17 59 2 2 17 -3 34 -11 17 -8 61 -22 99
-31 38 -9 79 -19 92 -23 l22 -6 -27 -31 c-61 -67 -62 -68 -20 -50 68 28 105
64 132 130 16 38 20 112 7 120 -5 3 -16 -17 -26 -44 -26 -73 -34 -77 -117 -57
-192 46 -313 160 -314 297 0 91 6 97 62 54 27 -21 80 -52 119 -70z m3834 -191
c-13 -58 -68 -173 -103 -211 l-21 -22 -23 22 c-28 26 -28 32 -3 69 32 43 60
136 67 216 l6 72 41 3 41 3 3 -48 c2 -27 -2 -73 -8 -104z m-2184 -114 l-11
-52 -91 6 c-85 6 -222 43 -249 68 -5 5 25 10 75 10 47 1 117 5 155 9 39 4 84
8 101 8 l31 2 -11 -51z m-425 -9 c30 -23 75 -48 102 -58 26 -9 47 -20 47 -23
0 -10 -72 -44 -141 -68 l-56 -19 -16 74 c-9 41 -26 88 -37 104 l-21 30 34 0
c25 0 50 -11 88 -40z m348 -148 l64 -7 12 -47 c17 -67 56 -120 109 -148 25
-14 45 -29 43 -35 -8 -24 -112 -54 -187 -54 -89 -1 -141 19 -187 72 -26 30
-73 129 -73 155 0 4 16 16 35 26 19 10 42 27 51 37 11 12 25 16 43 13 14 -3
55 -8 90 -12z m2035 -4 c27 -101 -34 -208 -141 -248 -75 -28 -213 -44 -305
-36 l-76 8 23 34 c13 19 27 48 30 65 5 21 16 33 42 44 19 8 55 28 79 45 38 25
55 30 107 30 78 0 121 12 177 49 55 36 56 36 64 9z m-2297 -145 c11 -32 23
-66 27 -75 11 -24 -13 -23 -125 3 l-88 20 16 33 c12 27 26 37 77 54 33 11 64
21 67 21 3 1 15 -25 26 -56z m-112 -118 c33 -8 90 -18 127 -22 52 -4 72 -11
89 -29 l21 -23 -37 -7 c-69 -13 -270 13 -314 40 -18 11 16 68 37 62 9 -3 44
-12 77 -21z m697 -70 c53 -60 113 -94 223 -125 l90 -26 0 -85 c0 -68 -4 -89
-20 -111 -68 -91 -197 -87 -285 8 -40 44 -100 157 -100 189 0 8 -4 15 -10 15
-23 0 -2 -128 35 -208 l25 -55 -55 6 c-133 14 -238 118 -281 280 -26 97 -29
93 94 93 111 -1 165 11 212 45 14 10 27 19 29 19 2 0 21 -20 43 -45z m-790
-24 c72 -25 178 -41 267 -41 62 0 70 -2 76 -21 4 -11 4 -24 0 -27 -16 -16
-288 -14 -384 3 -53 10 -98 19 -100 21 -4 3 70 80 80 83 3 0 31 -8 61 -18z
m2438 -25 c24 -14 24 -14 -29 -30 -99 -29 -176 -39 -306 -40 -114 0 -230 14
-259 32 -6 3 6 11 25 18 24 8 88 11 214 8 133 -4 196 -1 240 9 78 19 85 19
115 3z m77 -66 c6 -13 10 -27 7 -32 -10 -15 -167 -58 -256 -69 -107 -13 -256
-7 -377 16 -97 19 -241 62 -241 73 0 4 27 13 61 19 53 10 67 9 116 -8 198 -68
481 -66 613 5 52 28 61 28 77 -4z m-2617 -20 c82 -27 238 -43 355 -38 86 4
105 2 110 -10 3 -8 4 -16 3 -18 -12 -11 -189 -34 -267 -34 -150 0 -321 48
-329 91 -3 18 36 40 58 32 8 -3 40 -13 70 -23z m1762 -35 c86 -41 227 -79 353
-94 169 -21 290 -11 420 35 39 13 74 25 79 26 18 6 16 -22 -3 -41 -55 -55
-297 -90 -503 -72 -146 12 -328 46 -372 68 -39 19 -117 94 -110 105 11 17 65
7 136 -27z m-187 -21 c15 -25 47 -60 71 -77 24 -17 44 -35 44 -40 0 -22 -43
-78 -76 -98 -44 -27 -121 -30 -158 -5 -46 29 -66 74 -65 141 2 106 4 109 84
116 39 3 71 6 72 7 0 1 13 -19 28 -44z m-231 14 c-15 -48 -24 -94 -24 -131 0
-35 -3 -40 -42 -57 -24 -10 -44 -18 -45 -16 -2 2 6 23 17 47 13 30 20 66 20
112 l0 67 41 0 c37 0 40 -2 33 -22z m-1382 -115 c-2 -10 -7 -43 -10 -73 l-7
-55 -23 29 c-20 27 -52 113 -52 143 0 10 12 8 48 -6 35 -15 46 -24 44 -38z
m624 -73 c50 -52 101 -115 114 -139 21 -43 22 -45 4 -58 -21 -15 -79 -33 -110
-33 -46 0 -127 33 -165 67 -54 48 -82 148 -63 219 4 16 18 23 62 31 31 5 59
10 62 9 3 -1 46 -44 96 -96z m-508 65 c1 -1 -5 -33 -13 -70 -9 -38 -14 -77
-12 -87 6 -21 -12 -24 -36 -5 -22 15 -31 72 -23 132 l7 46 37 -7 c20 -4 38 -8
40 -9z m220 -60 c0 -51 7 -81 31 -132 l31 -66 -52 6 c-28 4 -56 11 -62 17 -12
12 -22 201 -12 225 3 8 18 15 34 15 28 0 29 0 30 -65z m-105 28 c-5 -16 -8
-65 -8 -111 l0 -84 -30 6 c-49 10 -58 30 -51 120 4 44 9 83 12 88 3 4 23 8 45
8 38 0 39 -1 32 -27z m1633 -13 c7 0 15 -20 19 -45 8 -58 39 -148 65 -193 12
-19 20 -36 18 -37 -2 -2 -20 4 -41 12 -44 18 -76 71 -101 170 -23 87 -21 107
7 99 12 -3 27 -6 33 -6z m768 -12 c-12 -42 -52 -113 -72 -131 -20 -18 -20 -17
-50 45 -16 35 -26 64 -22 66 14 5 135 40 143 41 5 0 5 -9 1 -21z m-643 -17 c3
-3 11 -26 18 -51 15 -50 63 -150 93 -192 19 -28 19 -28 -1 -28 -44 0 -70 20
-105 82 -30 54 -86 187 -86 204 0 7 73 -7 81 -15z m125 -7 c15 -4 29 -26 49
-77 15 -39 40 -91 56 -116 15 -25 25 -49 23 -53 -3 -4 -20 -8 -39 -8 -29 0
-39 7 -65 46 -30 43 -110 194 -110 208 0 7 58 8 86 0z m-311 -172 c-1 -1 -24
17 -51 41 l-48 44 34 40 34 41 17 -81 c9 -45 15 -83 14 -85z m514 100 c11 -38
32 -85 45 -105 l25 -36 -37 -11 c-20 -5 -42 -10 -47 -10 -11 0 -63 84 -109
178 l-26 52 64 0 64 0 21 -68z m140 26 c7 -24 22 -58 32 -77 11 -18 19 -35 17
-36 -9 -8 -68 -35 -76 -35 -9 0 -92 161 -92 179 0 7 21 11 53 11 l54 0 12 -42z
m-1042 2 c47 -56 136 -88 196 -72 34 10 37 8 96 -49 34 -33 61 -61 61 -63 0
-14 -117 -50 -176 -54 -118 -8 -191 39 -229 147 -19 56 -19 80 2 103 21 23 20
23 50 -12z m-371 -51 l71 -11 6 -80 c7 -83 41 -293 81 -488 25 -126 24 -130
-34 -130 l-35 0 -38 153 c-46 186 -77 291 -84 283 -8 -8 15 -191 41 -315 13
-61 20 -114 16 -116 -12 -7 -51 26 -61 54 -6 14 -24 87 -41 161 -34 154 -73
273 -128 400 l-38 88 33 6 c19 4 44 15 56 25 22 18 24 18 53 0 16 -10 62 -23
102 -30z m243 -25 c7 -26 23 -69 37 -96 l25 -49 -20 -43 c-26 -52 -28 -149 -6
-263 20 -106 19 -156 -4 -184 -11 -13 -22 -22 -25 -19 -18 18 -106 549 -106
641 0 32 4 37 33 47 51 16 54 15 66 -34z"/>
<path d="M2320 7603 c-69 -55 -234 -137 -323 -161 -37 -10 -65 -21 -61 -25 4
-4 40 -7 80 -7 139 0 278 67 337 162 44 71 32 83 -33 31z"/>
<path d="M7800 9550 c-25 -4 -61 -12 -80 -17 -19 -5 -87 -8 -151 -5 -141 5
-238 -16 -376 -82 -138 -67 -238 -139 -340 -245 -121 -125 -133 -138 -244
-246 -115 -112 -210 -243 -286 -396 -44 -89 -67 -123 -97 -145 -87 -66 -201
-222 -261 -360 -25 -58 -42 -81 -83 -114 -126 -99 -190 -224 -208 -405 -4 -38
-15 -86 -25 -106 -44 -88 -64 -273 -39 -359 6 -19 15 -81 20 -138 15 -169 70
-278 219 -434 52 -54 124 -121 160 -149 84 -64 265 -153 359 -177 l73 -18 44
-90 c24 -49 64 -112 90 -141 81 -92 270 -204 401 -237 83 -21 213 -20 295 2
56 16 71 16 114 5 176 -45 406 -8 622 100 57 29 82 35 158 40 113 7 203 35
330 101 157 81 417 258 509 346 44 42 101 90 126 105 61 38 220 200 308 314
40 51 89 106 110 120 42 31 87 107 98 166 4 22 22 58 39 80 81 99 119 190 165
387 47 201 57 322 37 439 -9 52 -20 146 -26 209 -15 176 -58 271 -149 330 -39
25 -52 40 -62 73 -22 74 -76 181 -119 235 -45 56 -131 128 -206 171 -26 15
-60 49 -82 81 -21 30 -58 68 -82 85 -24 16 -60 47 -80 69 -91 97 -114 116
-174 146 -36 17 -96 37 -135 43 -62 11 -75 17 -120 59 -59 55 -124 90 -224
119 -59 18 -105 22 -243 25 -93 2 -192 8 -218 14 -54 11 -101 11 -167 0z m171
-66 c38 -12 72 -14 116 -10 35 4 63 4 63 1 0 -2 -17 -12 -37 -20 -21 -9 -49
-26 -63 -39 -20 -18 -45 -25 -123 -34 l-99 -12 -43 47 c-24 27 -44 51 -45 54
0 9 85 26 136 28 22 0 65 -6 95 -15z m-304 -29 c43 -22 103 -79 103 -99 0 -2
-13 -14 -29 -25 l-29 -21 -58 21 c-44 16 -83 21 -154 21 -120 0 -200 -24 -303
-91 -49 -32 -101 -56 -152 -70 -42 -12 -99 -33 -127 -47 -27 -14 -52 -23 -54
-21 -8 7 133 134 197 177 65 45 204 113 253 126 29 7 29 7 13 -17 -10 -13 -17
-32 -17 -42 0 -14 8 -10 35 18 92 91 222 119 322 70z m680 -3 c8 -5 2 -13 -20
-25 -29 -16 -77 -72 -77 -91 0 -4 13 4 30 17 36 31 129 67 172 67 37 0 108
-32 133 -60 17 -18 16 -19 -11 -25 -117 -24 -193 -57 -276 -121 -31 -25 -74
-52 -95 -61 -46 -19 -171 -26 -232 -12 -58 13 -62 6 -12 -23 56 -32 57 -69 2
-126 -54 -55 -98 -68 -158 -48 -66 23 -78 21 -59 -6 9 -12 16 -39 16 -60 0
-31 -7 -45 -39 -77 -52 -52 -110 -66 -161 -39 -19 10 -43 18 -53 18 -16 0 -16
-2 4 -29 28 -39 19 -74 -30 -121 -56 -53 -126 -71 -306 -77 -136 -5 -238 3
-314 24 -17 4 -22 3 -17 -6 11 -17 82 -51 108 -51 20 0 18 -3 -15 -34 -52 -47
-46 -59 16 -31 79 34 165 49 263 42 130 -8 156 -48 91 -143 -74 -108 -198
-145 -288 -85 -24 17 -45 28 -47 26 -9 -9 43 -98 68 -117 l28 -20 -46 -58
c-26 -32 -65 -92 -88 -135 l-41 -76 -12 43 c-7 24 -21 54 -32 68 l-20 25 6
-61 c8 -76 -11 -216 -35 -265 -57 -110 -203 -176 -261 -118 -22 22 -23 63 -3
127 6 22 5 23 -15 10 -59 -36 -131 -187 -131 -275 0 -57 9 -49 40 35 12 34 26
65 30 67 17 10 98 -65 114 -106 22 -54 16 -79 -49 -203 -29 -56 -63 -132 -76
-171 -45 -141 -131 -174 -216 -83 -69 73 -81 294 -27 461 20 60 71 112 126
129 l43 13 -37 3 c-43 4 -107 -25 -136 -63 -11 -14 -29 -25 -41 -25 -34 0
-114 -30 -149 -57 -18 -14 -46 -43 -62 -64 -33 -46 -40 -37 -40 48 0 74 24
111 109 168 38 25 71 45 75 45 3 0 6 -10 6 -22 0 -13 4 -29 9 -37 6 -10 12 -3
21 25 18 58 152 334 162 334 4 0 8 -9 8 -19 0 -25 47 -81 68 -81 12 0 8 -9
-15 -32 -45 -49 -63 -80 -63 -108 l1 -25 22 25 c67 75 169 136 276 163 l53 14
-30 12 c-24 10 -54 11 -123 4 -111 -11 -133 -3 -137 49 -6 75 68 218 185 353
75 87 72 97 -8 39 -52 -38 -97 -94 -192 -240 -37 -55 -73 -106 -81 -113 -26
-21 -48 28 -48 104 1 78 31 141 123 255 33 41 77 100 98 130 64 92 129 157
183 184 82 41 103 34 73 -23 -42 -81 -36 -221 15 -347 29 -72 29 -76 18 -153
-6 -43 -7 -92 -3 -107 7 -26 9 -22 21 36 18 88 59 204 96 269 16 29 28 55 26
57 -9 8 -76 -58 -88 -86 -7 -17 -16 -27 -20 -23 -22 24 -44 125 -45 203 0 73
4 93 28 141 30 63 77 101 144 119 52 13 77 7 176 -43 68 -33 88 -39 146 -39
73 -1 161 23 183 49 12 15 10 16 -12 9 -14 -4 -61 -10 -105 -13 -141 -9 -208
26 -235 122 -14 50 -30 45 -30 -10 l0 -30 -77 -1 c-43 -1 -89 -4 -103 -5 -53
-8 -81 122 -41 188 26 42 110 107 193 149 37 19 70 34 72 34 3 0 -6 -19 -19
-42 -46 -80 -26 -76 63 11 157 156 334 218 509 181 74 -16 78 -21 54 -61 -12
-19 -21 -51 -21 -71 0 -30 -4 -38 -18 -38 -9 0 -23 9 -30 21 -21 33 -90 59
-157 59 -33 0 -67 -5 -75 -10 -11 -7 -6 -10 21 -10 55 0 133 -27 159 -55 l24
-26 -45 -42 c-25 -23 -55 -55 -67 -71 l-22 -28 -30 25 c-31 26 -35 28 -107 47
-39 10 -43 14 -43 41 0 16 7 43 15 59 9 17 12 30 7 30 -20 0 -54 -51 -59 -89
-5 -34 -10 -42 -32 -47 -49 -11 -126 -37 -176 -61 -27 -12 -63 -23 -78 -23
-16 0 -26 -4 -22 -10 11 -17 68 -11 146 15 147 51 273 51 316 0 34 -39 29 -57
-22 -84 -46 -24 -98 -83 -59 -66 96 41 133 49 231 50 76 0 99 3 90 11 -16 15
-74 34 -102 34 -87 0 -19 107 110 173 17 8 63 20 103 26 81 13 146 41 162 71
10 18 9 19 -26 4 -21 -9 -58 -14 -92 -12 -53 3 -57 5 -60 30 -4 37 51 90 125
119 75 30 258 34 311 7 45 -23 40 -4 -8 31 l-41 29 28 20 c64 44 205 76 240
54z m527 -221 c87 -43 135 -101 82 -101 -36 0 -73 -36 -90 -88 -10 -28 -32
-64 -54 -85 l-37 -37 -35 47 c-31 42 -108 99 -119 88 -2 -3 13 -23 34 -46 52
-58 77 -121 83 -205 5 -77 -3 -93 -38 -74 -11 6 -48 10 -83 8 l-62 -3 62 -23
c138 -53 302 -256 347 -429 25 -95 25 -94 -41 -87 -63 7 -64 -5 -3 -25 251
-80 330 -400 158 -643 -11 -16 -15 -28 -9 -28 11 0 69 46 91 73 15 17 17 17
56 -11 23 -17 51 -43 62 -59 34 -47 55 -140 55 -238 1 -104 -18 -175 -64 -246
-28 -45 -122 -139 -138 -139 -3 0 -6 42 -6 93 0 78 -4 101 -26 147 -32 69 -79
123 -134 156 -25 14 -48 37 -55 54 -7 17 -28 43 -46 60 -22 19 -34 38 -34 55
0 23 2 25 21 14 26 -14 125 -7 141 9 9 9 1 12 -32 12 -51 0 -100 26 -126 65
-12 18 -20 59 -25 124 -4 53 -10 113 -14 133 -7 35 -6 35 32 41 54 9 102 43
141 101 51 77 41 94 -18 31 -57 -60 -92 -78 -141 -73 -37 3 -38 5 -104 153
-20 44 -49 97 -66 118 l-30 37 28 11 c60 22 143 129 143 183 0 30 -1 30 -34
-20 -67 -99 -126 -131 -182 -98 -41 24 -265 229 -281 258 -56 97 84 234 259
254 59 7 61 9 40 21 -64 35 -202 3 -292 -69 -47 -37 -50 -31 -50 83 0 136 34
227 113 307 92 94 199 132 354 127 91 -3 109 -7 167 -36z m235 -207 c82 -74
122 -170 141 -338 15 -135 1 -210 -60 -328 -34 -66 -54 -120 -62 -167 l-12
-69 -38 31 c-31 25 -38 37 -38 67 0 93 -64 229 -170 364 -80 101 -86 126 -37
157 27 17 43 20 107 16 44 -3 104 -16 145 -30 l70 -26 -39 35 c-67 58 -187 86
-278 65 -36 -8 -38 -7 -38 15 0 13 15 41 35 62 19 21 48 68 64 104 34 76 48
87 112 88 42 0 52 -5 98 -46z m-879 33 c0 -1 -9 -28 -20 -58 -31 -90 -44 -220
-31 -324 6 -49 9 -90 7 -92 -2 -2 -43 1 -92 7 -85 9 -174 5 -202 -10 -8 -4 19
-10 60 -13 127 -11 270 -64 353 -132 54 -44 195 -189 243 -250 99 -127 170
-285 197 -443 18 -102 21 -390 5 -501 -6 -41 -9 -76 -7 -78 7 -7 49 101 55
140 7 51 16 54 42 11 26 -41 31 -101 11 -135 -32 -58 -141 -113 -250 -125 -61
-7 -64 -6 -56 12 14 34 17 131 5 168 -6 20 -26 58 -44 85 l-33 49 -5 171 c-6
169 -5 171 16 176 82 16 125 29 153 43 31 17 28 17 -125 17 -134 0 -165 3
-212 21 l-55 20 -7 69 c-5 47 -16 88 -37 129 l-31 59 27 36 c14 20 51 64 81
99 48 56 51 61 26 51 -49 -18 -89 -47 -137 -98 l-45 -48 -48 48 -47 48 7 63
c3 35 12 91 20 126 7 34 9 62 5 62 -11 0 -46 -78 -64 -145 -9 -33 -18 -66 -21
-74 -3 -10 -14 -6 -42 14 -56 42 -121 106 -144 143 -28 46 -34 33 -10 -22 26
-57 92 -129 204 -217 157 -126 220 -248 174 -337 -20 -38 -81 -93 -150 -137
-58 -37 -218 -115 -235 -115 -5 0 -11 24 -13 54 -3 32 -13 67 -27 87 l-22 34
7 -56 c10 -94 -13 -151 -101 -250 -85 -96 -129 -176 -149 -270 -9 -42 -29 -92
-55 -134 -22 -38 -41 -72 -41 -76 0 -4 -17 -1 -37 7 -41 14 -94 16 -133 5 -23
-7 -22 -9 18 -20 24 -7 60 -27 80 -46 l37 -33 6 -154 c3 -84 12 -166 18 -183
11 -25 10 -31 -6 -43 -27 -19 -110 -42 -183 -48 -96 -9 -103 0 -98 133 2 57 2
103 1 103 -12 0 -36 -61 -57 -142 -31 -118 -54 -165 -101 -206 -43 -38 -70
-46 -136 -40 -94 9 -144 89 -137 220 7 139 106 290 257 391 65 44 74 41 128
-42 67 -104 64 -101 57 -56 -7 46 -47 141 -71 167 -15 17 -14 24 6 101 13 45
31 101 41 125 11 23 15 42 9 42 -14 0 -75 -100 -105 -174 -26 -61 -31 -68 -93
-103 -96 -56 -189 -152 -238 -248 l-42 -80 -11 30 c-24 61 -32 154 -20 222 32
188 157 352 374 495 90 59 177 108 194 108 4 0 17 -19 29 -42 30 -62 76 -122
114 -149 l34 -24 -23 32 c-39 55 -82 158 -89 212 -16 140 106 252 310 282 40
6 86 14 102 18 l30 8 -45 13 c-27 7 -69 10 -107 7 l-62 -6 19 42 c11 23 20 60
20 82 l0 40 -31 -55 c-37 -68 -68 -101 -139 -150 -71 -48 -120 -103 -144 -160
-10 -25 -21 -51 -25 -58 -3 -7 -62 -42 -129 -78 l-124 -66 7 34 c16 76 60 198
97 273 97 196 221 301 389 329 79 13 79 23 1 35 -43 6 -47 9 -44 31 13 94 82
209 143 240 43 22 59 20 59 -9 0 -10 22 -63 49 -117 27 -55 54 -117 61 -139
18 -57 65 -149 86 -166 15 -13 16 -12 9 11 -14 43 -24 94 -20 99 2 2 21 -11
42 -29 40 -35 156 -94 174 -88 6 2 -10 18 -35 36 -67 49 -169 152 -210 214
-95 143 -99 293 -12 443 48 81 149 158 239 183 35 10 37 9 37 -12 0 -29 20
-86 30 -86 4 0 10 21 13 48 14 120 98 248 182 277 38 13 65 18 65 12z m-1520
-160 c0 -37 8 -69 26 -106 15 -28 23 -55 20 -59 -4 -3 -33 -7 -64 -7 -91 -1
-162 -53 -296 -219 -21 -26 -40 -45 -43 -43 -6 7 103 193 163 277 61 85 171
210 185 210 5 0 9 -24 9 -53z m2674 -138 c125 -117 204 -279 214 -440 l5 -86
-52 -5 c-81 -8 -122 -58 -124 -153 l-1 -54 -39 35 c-36 33 -75 54 -99 54 -6 0
21 -33 60 -74 79 -83 150 -213 178 -326 23 -89 15 -211 -20 -315 -27 -79 -83
-185 -98 -185 -4 0 -8 31 -8 68 0 117 -40 221 -117 303 -54 58 -61 80 -52 172
8 79 -3 175 -26 231 -35 82 -28 222 15 306 39 76 137 149 200 150 14 0 42 -9
63 -20 47 -25 50 -7 6 36 -28 27 -36 29 -103 29 l-73 0 4 40 c2 22 6 51 8 65
4 26 -12 182 -21 213 -10 31 14 18 80 -44z m-3081 -371 c-102 -130 -143 -212
-150 -302 -5 -62 -6 -64 -37 -69 -17 -3 -46 -9 -63 -13 l-33 -6 21 48 c44 100
116 210 186 281 39 40 75 73 79 73 3 0 2 -6 -3 -12z m3404 -70 c109 -113 96
-285 -31 -415 -54 -55 -59 -63 -39 -63 35 0 85 24 126 59 l36 32 7 -47 c9 -64
-9 -156 -46 -229 -30 -59 -153 -215 -169 -215 -5 0 -5 17 0 38 22 97 6 208
-58 392 -30 86 -37 120 -37 186 -1 106 8 118 110 133 42 6 85 17 97 23 21 12
21 12 -8 18 -29 5 -30 7 -33 63 -2 31 1 57 6 57 4 0 22 -15 39 -32z m-3512
-382 c15 -22 13 -30 -28 -131 l-45 -108 -64 -27 c-74 -32 -142 -72 -178 -106
-14 -13 -45 -30 -69 -39 l-44 -15 6 65 c11 114 68 222 150 282 54 40 197 103
234 103 13 0 29 -10 38 -24z m2142 -227 c56 -35 68 -68 68 -202 l0 -118 -79
-5 c-44 -2 -109 -11 -145 -20 -64 -14 -151 -57 -151 -73 0 -4 33 1 73 11 39
10 116 21 169 25 94 6 99 5 139 -21 51 -34 94 -120 86 -172 -8 -50 -67 -107
-160 -153 -127 -62 -123 -63 -131 13 -7 70 -21 120 -43 151 -12 18 -13 9 -7
-65 8 -106 -9 -230 -39 -284 -33 -60 -94 -91 -177 -91 -36 1 -78 4 -95 9 -29
7 -29 7 -11 -13 23 -25 104 -51 158 -51 35 0 40 -3 54 -36 8 -20 20 -72 27
-116 22 -154 -32 -310 -151 -439 -60 -64 -63 -70 -36 -63 16 3 49 17 74 29 45
23 179 59 188 51 9 -9 -39 -74 -72 -100 -74 -56 -124 -60 -246 -22 -54 18
-126 31 -200 37 -63 5 -131 14 -150 19 -42 11 -102 59 -141 113 l-29 40 0 -37
c0 -40 20 -88 53 -123 l20 -23 -79 0 c-175 0 -334 71 -350 155 -14 79 55 201
131 230 77 30 294 6 390 -42 16 -9 57 -39 90 -68 78 -67 135 -105 158 -105 14
0 4 16 -41 63 -155 162 -226 260 -253 349 -40 131 -15 343 50 427 l19 24 82
-17 c48 -11 121 -18 178 -18 53 1 129 -5 169 -12 63 -11 71 -10 60 3 -21 25
-89 49 -172 61 -216 30 -285 53 -285 93 0 58 69 209 127 278 67 80 163 88 279
24 l65 -35 -18 31 c-21 36 -54 62 -115 88 l-43 19 85 40 c173 82 250 91 330
38 l41 -27 -15 29 c-8 16 -32 43 -52 59 l-37 30 23 30 c22 31 23 31 63 17 22
-8 55 -24 74 -35z m1416 -226 c-14 -102 -78 -255 -135 -326 l-23 -28 -42 50
-43 49 22 54 c12 29 26 55 30 56 28 12 129 99 158 137 19 25 36 45 37 45 1 0
-1 -17 -4 -37z m-3903 -55 c1 -24 8 -61 17 -83 21 -53 20 -64 -9 -175 -14 -52
-29 -123 -33 -158 l-7 -64 -29 34 c-57 67 -83 136 -87 229 -6 130 19 196 92
240 47 28 56 25 56 -23z m295 -5 c-49 -191 -44 -321 18 -444 l33 -66 -32 -21
c-35 -23 -77 -88 -88 -137 -7 -28 -4 -27 49 27 63 64 88 74 208 84 l77 7 0
-99 c0 -163 -39 -213 -184 -235 -45 -7 -87 -7 -133 0 -187 29 -244 153 -209
451 28 227 101 385 205 440 52 28 65 26 56 -7z m2849 -247 c64 -63 83 -131 68
-239 -30 -208 -178 -365 -397 -422 -84 -21 -95 -20 -95 11 0 47 -22 103 -56
142 l-33 39 30 36 30 37 -25 0 c-83 0 -153 -169 -115 -279 15 -41 29 -39 29 5
0 49 21 125 33 121 6 -2 19 -19 29 -38 51 -92 -25 -239 -177 -342 -59 -41
-238 -127 -263 -127 -8 0 -1 21 18 57 56 104 73 182 68 296 -4 70 -12 116 -25
146 l-19 44 46 47 c28 27 53 64 62 91 14 41 21 47 124 106 60 34 128 65 150
69 77 11 180 -52 227 -141 17 -32 21 -57 21 -127 0 -82 1 -86 17 -72 10 9 20
27 24 41 4 18 10 23 23 18 34 -14 92 -18 92 -6 0 6 -7 11 -15 11 -24 0 -95 75
-95 101 0 28 -43 123 -59 134 -8 4 3 19 30 39 57 46 156 162 176 208 9 21 20
38 24 38 4 0 28 -20 53 -44z m514 -38 c40 -66 34 -136 -15 -190 -24 -27 -33
-22 -33 16 0 18 -8 51 -17 72 l-17 39 -8 -60 c-16 -118 -30 -164 -67 -222 -44
-67 -151 -188 -230 -258 l-55 -48 -19 44 c-10 24 -27 54 -38 65 l-21 22 41 60
c23 33 46 74 52 91 8 24 20 33 48 41 84 22 175 118 227 238 20 46 38 70 68 91
53 38 60 38 84 -1z m-3693 -308 c7 -68 19 -133 31 -166 7 -18 7 -18 -15 1 -45
39 -100 173 -115 278 l-5 38 49 -43 c46 -41 48 -46 55 -108z m737 -257 c17
-27 27 -58 31 -106 8 -86 33 -143 82 -186 52 -45 93 -61 160 -61 30 0 55 -4
55 -9 0 -4 -10 -23 -23 -42 -30 -45 -91 -78 -164 -88 -58 -8 -58 -8 -28 -20
41 -17 123 -9 174 18 l43 22 43 -47 c42 -44 43 -48 30 -73 -14 -28 -48 -62
-80 -79 -19 -11 -19 -11 3 -12 33 0 93 27 124 57 27 26 28 26 70 10 61 -23
167 -47 211 -47 45 0 49 -19 14 -71 -28 -42 -71 -58 -162 -58 -89 -1 -168 19
-270 68 -211 101 -319 233 -351 429 -20 127 -17 332 6 332 4 0 18 -17 32 -37z
m2428 -33 c5 -10 10 -36 10 -58 0 -52 -43 -101 -173 -196 -242 -176 -470 -298
-617 -330 l-25 -5 40 82 c37 77 44 86 100 117 33 19 93 68 134 108 l73 74 68
1 c49 1 75 -4 95 -17 34 -22 43 -14 21 19 -21 32 -70 63 -114 71 -23 5 -32 11
-30 23 2 12 20 18 71 23 105 10 248 66 287 113 14 17 44 5 60 -25z m-2570 -50
c0 -52 -25 -85 -79 -109 -104 -44 -218 -17 -305 75 -25 26 -44 49 -42 51 1 2
32 -4 67 -13 77 -20 242 -15 304 9 55 21 55 21 55 -13z m19 -197 c1 -19 -4
-23 -29 -23 -16 0 -55 10 -87 22 l-58 22 51 7 c27 3 63 13 80 22 28 15 29 14
36 -6 3 -12 6 -32 7 -44z m1236 -383 c72 -12 165 -40 165 -50 0 -14 -116 -59
-184 -71 -75 -13 -191 -7 -243 11 -29 10 -31 14 -22 36 5 14 9 36 9 49 0 14 7
25 18 28 33 9 197 7 257 -3z"/>
<path d="M7427 4861 c-39 -16 -54 -17 -85 -9 -58 16 -147 4 -215 -30 l-60 -30
-45 24 c-32 17 -61 24 -100 24 -83 0 -253 -28 -336 -55 -41 -13 -106 -29 -143
-35 -150 -23 -298 -84 -383 -157 -25 -21 -70 -47 -100 -57 -154 -52 -305 -155
-356 -241 -15 -27 -36 -47 -54 -54 -42 -14 -111 -63 -156 -111 -39 -40 -93
-133 -94 -158 0 -7 -16 -34 -35 -59 -20 -26 -42 -72 -51 -102 -8 -31 -22 -67
-30 -81 -49 -81 -63 -150 -45 -227 9 -38 8 -59 -4 -103 -39 -142 6 -304 119
-428 11 -13 26 -50 33 -83 15 -77 54 -161 99 -216 92 -112 353 -236 547 -259
l57 -6 0 -42 c0 -100 60 -215 136 -263 24 -15 85 -58 134 -95 106 -79 224
-139 336 -170 65 -18 105 -22 229 -22 148 0 160 2 371 51 17 4 22 -2 32 -34
13 -45 73 -140 123 -197 18 -21 67 -62 109 -92 66 -46 78 -59 94 -104 10 -28
69 -152 131 -275 63 -124 128 -267 146 -317 36 -101 74 -153 118 -163 30 -6
148 19 194 42 56 28 53 78 -12 247 l-30 79 22 79 c16 59 26 78 37 75 192 -56
335 -77 465 -70 91 5 237 41 279 69 13 8 43 17 67 20 65 7 133 32 177 64 76
55 171 280 172 407 l0 41 40 -5 c57 -8 119 13 176 57 27 22 67 48 90 58 54 26
109 82 137 140 13 26 35 67 49 92 15 25 39 81 54 125 26 79 27 85 27 345 1
350 -19 455 -129 670 -23 47 -46 99 -50 115 -13 54 -45 119 -84 171 -21 28
-44 71 -50 95 -32 123 -136 272 -239 343 -22 16 -54 50 -72 77 -17 27 -43 59
-58 71 -14 13 -41 55 -60 93 -52 106 -178 228 -296 287 -49 24 -119 50 -154
58 -57 12 -70 20 -126 75 -37 36 -88 74 -126 92 -68 34 -182 58 -224 47 -16
-4 -34 1 -52 14 -40 28 -103 43 -175 41 -36 -2 -87 5 -118 14 -30 9 -82 17
-114 17 -41 0 -74 7 -105 22 -63 31 -169 35 -234 9z m166 -67 c12 -4 8 -15
-21 -54 l-35 -48 -24 29 c-14 16 -38 37 -54 46 -26 15 -27 19 -12 25 22 8 126
10 146 2z m-205 -44 c56 -24 126 -92 147 -143 29 -73 29 -75 -11 -92 -45 -19
-44 -19 -44 3 0 28 -37 81 -72 102 -49 30 -51 25 -13 -26 50 -65 48 -105 -5
-164 -23 -25 -54 -71 -69 -102 l-29 -57 -26 39 c-35 53 -88 91 -136 97 -48 7
-51 -1 -9 -23 41 -21 78 -61 96 -104 8 -19 28 -104 44 -188 15 -85 30 -157 33
-159 7 -7 14 47 21 152 9 154 49 261 118 320 46 40 201 117 282 141 115 34 96
44 -35 18 -45 -9 -83 -15 -85 -12 -2 2 -10 25 -16 51 -12 43 -11 49 7 74 37
50 70 67 138 71 94 6 206 -30 280 -91 l29 -24 -19 -40 c-11 -24 -32 -48 -51
-58 -55 -30 -141 -129 -175 -201 l-31 -67 -20 27 c-29 40 -98 76 -158 82 l-54
6 45 -27 c124 -73 179 -178 181 -350 1 -78 1 -79 15 -47 8 18 18 81 23 140 13
157 54 247 156 341 67 62 174 104 324 127 34 6 40 9 26 16 -23 13 -153 12
-205 -2 -23 -6 -44 -9 -47 -7 -7 7 59 55 100 72 20 8 66 15 102 15 95 0 160
-33 260 -133 80 -80 86 -100 24 -78 -17 6 -60 14 -95 17 -85 9 -145 -8 -185
-53 -17 -19 -29 -37 -27 -39 2 -2 26 8 53 21 84 43 196 30 329 -37 91 -46 134
-77 157 -115 27 -44 21 -79 -27 -144 l-36 -49 -56 50 c-115 103 -258 119 -422
46 -12 -5 -15 5 -16 62 -1 112 -50 179 -144 196 l-35 6 47 -46 c26 -25 52 -62
59 -82 20 -60 6 -152 -35 -233 -19 -40 -34 -74 -32 -76 2 -2 30 19 62 47 33
28 84 63 114 78 48 24 67 27 150 27 88 0 99 -2 150 -31 108 -61 175 -194 175
-349 -1 -53 -7 -95 -18 -124 -10 -24 -17 -60 -15 -80 l3 -36 34 60 c19 33 74
99 122 148 79 79 85 87 61 87 -15 0 -48 -11 -74 -24 l-47 -22 -5 20 c-9 35 -7
124 5 171 14 56 77 130 124 145 86 28 170 6 237 -63 99 -102 151 -331 124
-547 l-7 -55 18 30 c9 17 22 50 29 75 6 25 15 45 20 45 5 0 24 -30 42 -66 48
-93 54 -176 20 -251 -31 -68 -95 -130 -172 -168 -73 -37 -86 -37 -86 -5 0 26
-33 99 -48 109 -5 3 -7 -36 -4 -88 4 -77 1 -106 -16 -162 -48 -157 -149 -272
-319 -362 l-98 -53 55 4 c37 2 76 14 118 35 l64 33 -6 -28 c-3 -15 -8 -55 -11
-88 l-6 -60 25 45 c14 25 30 68 37 97 10 42 23 63 69 110 59 61 133 193 146
259 9 47 24 51 72 19 107 -70 162 -256 162 -543 0 -76 4 -131 9 -128 20 13 35
118 35 254 1 138 2 143 21 136 72 -24 150 -15 194 21 36 31 39 31 53 -2 36
-90 26 -200 -29 -313 l-37 -75 -7 80 c-8 96 -20 130 -62 173 -45 46 -51 40
-21 -20 54 -107 39 -262 -37 -383 -59 -94 -110 -135 -169 -135 -43 0 -65 13
-137 81 -67 64 -98 78 -60 27 58 -77 78 -149 51 -179 -25 -27 -69 -24 -227 15
-75 19 -157 38 -182 41 -47 8 -58 20 -26 30 11 3 36 24 55 45 32 35 36 46 36
93 0 45 4 57 28 80 52 50 109 45 176 -18 15 -14 30 -24 33 -22 2 3 -1 26 -8
52 -14 54 -10 59 86 115 58 34 135 97 135 111 0 5 -19 0 -41 -12 -70 -35 -209
-86 -299 -109 -119 -31 -216 -30 -308 3 -100 35 -122 51 -122 87 0 17 -3 30
-7 30 -3 0 -28 -14 -54 -31 -65 -41 -152 -55 -239 -37 l-65 13 -5 57 c-6 66
-16 82 -26 42 -22 -90 -61 -114 -186 -114 -78 0 -93 4 -136 36 -2 1 4 16 12
33 9 16 16 33 16 36 0 3 -28 -14 -62 -38 -118 -84 -251 -137 -374 -152 -114
-13 -304 27 -387 81 -60 40 -57 19 7 -41 l58 -53 -42 -31 c-57 -41 -133 -65
-210 -65 -69 0 -98 11 -143 52 l-27 26 11 -31 c25 -75 188 -187 287 -199 l47
-6 -83 48 -84 48 79 17 c43 10 103 28 133 42 30 14 80 28 110 31 61 7 177 -6
240 -28 45 -15 49 -12 19 20 l-20 22 78 17 c43 9 102 28 132 41 145 65 399 31
519 -70 25 -22 32 -24 32 -11 0 9 -7 29 -15 45 -8 16 -11 31 -7 34 4 2 47 10
95 17 160 22 374 -14 480 -80 90 -58 97 -132 17 -185 -148 -97 -417 -63 -673
86 -57 33 -57 33 -57 9 0 -10 16 -33 35 -50 l35 -30 -43 -13 c-57 -17 -276
-16 -363 1 -65 12 -79 12 -145 -5 -146 -36 -247 -19 -332 56 -20 17 -37 27
-37 20 0 -32 37 -85 78 -111 l44 -28 -64 -19 c-138 -43 -229 -56 -378 -56
-161 -1 -248 17 -360 74 -70 35 -82 50 -42 50 15 0 64 9 107 21 61 16 93 19
144 13 36 -3 64 -4 61 -1 -3 3 -45 32 -95 65 -49 32 -114 84 -142 115 -45 47
-53 52 -53 33 0 -26 46 -101 84 -135 14 -14 26 -29 26 -34 0 -17 -230 -2 -283
19 -114 44 -199 148 -199 243 0 58 20 99 74 152 28 26 35 39 24 39 -25 0 -79
-25 -95 -43 -20 -25 -27 -21 -49 31 -29 67 -37 140 -22 204 11 43 24 63 69
108 31 32 77 65 103 75 27 11 53 31 62 47 31 52 118 138 184 181 181 119 341
126 600 25 l102 -41 0 -56 c0 -70 11 -161 19 -161 3 0 14 40 23 89 34 174 87
275 165 314 79 40 213 78 294 84 69 5 78 4 98 -16 20 -20 22 -31 19 -87 l-3
-65 30 34 c17 19 43 51 59 72 33 43 95 74 147 75 19 0 60 -12 89 -27 71 -37
114 -97 138 -194 15 -60 20 -69 25 -49 4 14 7 47 7 73 0 59 10 64 97 48 81
-15 163 -55 227 -112 l49 -44 -7 30 c-4 17 -18 44 -31 61 l-24 31 51 6 c48 6
129 44 144 69 5 8 -2 9 -22 4 -16 -4 -75 -10 -131 -13 -90 -5 -106 -3 -145 16
-51 24 -76 61 -85 127 l-6 47 -18 -34 c-10 -19 -18 -42 -19 -51 0 -9 -4 -19
-9 -22 -15 -10 -64 13 -98 46 -63 61 -52 128 39 224 59 63 121 110 192 148
l49 26 -36 0 c-20 0 -49 -5 -64 -12 -44 -19 -135 -77 -165 -106 -15 -14 -30
-24 -32 -21 -3 2 4 39 13 82 28 116 15 105 -70 -64 -64 -126 -117 -182 -193
-204 -188 -55 -299 112 -165 246 43 43 35 48 -28 20 l-41 -19 -19 46 -20 47
-6 -106 c-7 -127 -25 -177 -80 -225 -50 -42 -161 -79 -210 -70 -55 10 -93 41
-121 98 -27 55 -56 181 -56 246 -1 71 -22 5 -28 -84 -2 -46 -7 -84 -10 -84 -3
0 -13 7 -23 16 -31 28 -129 56 -129 36 0 -4 20 -18 45 -31 25 -13 57 -38 71
-55 25 -30 114 -183 114 -196 0 -12 -107 -69 -159 -84 -68 -20 -112 -20 -157
-1 -25 10 -56 13 -113 8 -92 -7 -139 10 -171 63 -41 65 -52 400 -17 502 19 56
3 51 -39 -11 l-32 -46 -36 54 c-37 56 -87 97 -71 59 66 -163 95 -298 95 -446
-1 -170 -37 -229 -161 -262 -139 -36 -227 31 -334 256 -42 88 -45 91 -45 55 0
-21 7 -53 14 -72 8 -19 13 -35 10 -35 -2 0 -21 11 -42 25 -39 25 -126 50 -143
39 -5 -3 12 -17 38 -31 137 -72 285 -234 314 -343 10 -39 10 -51 -5 -82 -32
-68 -155 -130 -257 -130 -88 0 -151 33 -251 129 -50 47 -60 44 -32 -8 8 -17
13 -33 10 -36 -14 -15 -88 29 -147 87 -51 51 -71 80 -93 135 -55 135 -36 242
60 340 45 47 151 105 191 105 21 0 21 -1 8 -33 -24 -58 -28 -127 -11 -207 9
-41 16 -86 16 -99 0 -37 -39 -96 -80 -122 -21 -13 -33 -27 -28 -30 19 -12 71
10 108 46 l36 36 11 -23 c14 -31 61 -86 83 -98 14 -8 8 12 -25 82 -121 258
-97 432 73 515 108 53 237 28 330 -65 l40 -40 12 90 c6 49 9 92 6 95 -3 3 -15
-15 -27 -40 l-22 -45 -29 21 c-15 11 -28 28 -28 36 0 29 84 157 141 214 72 72
148 108 239 115 77 5 126 -8 171 -45 39 -33 54 -64 74 -149 8 -38 25 -98 37
-134 17 -49 22 -83 19 -137 -2 -40 1 -73 5 -73 5 0 19 33 32 73 24 75 80 173
138 241 19 22 32 41 29 44 -10 10 -75 -42 -116 -93 -24 -30 -47 -55 -50 -55
-26 0 -48 244 -30 329 39 181 208 354 398 406 l48 13 -53 1 c-29 1 -77 -8
-107 -18 l-55 -19 0 44 c0 161 175 249 348 174z m-376 -11 c26 -11 26 -12 10
-46 -14 -29 -21 -34 -42 -30 -109 22 -238 15 -310 -16 -33 -14 -29 -15 80 -11
73 3 137 0 175 -8 l60 -13 7 -50 c7 -49 6 -50 -30 -79 -20 -16 -56 -50 -80
-76 l-43 -46 -52 49 c-29 27 -72 68 -97 92 -66 62 -117 93 -177 106 -60 14
-59 22 11 63 57 33 152 64 233 75 83 12 220 6 255 -10z m1078 -30 l33 -12 -27
-14 c-24 -13 -30 -12 -56 7 -17 12 -30 23 -30 26 0 8 47 4 80 -7z m-1662 -58
c-14 -18 -40 -33 -68 -41 -25 -6 -73 -27 -108 -46 -58 -31 -132 -46 -132 -26
0 21 161 102 251 126 79 21 84 20 57 -13z m134 -104 c24 -14 51 -33 60 -43 16
-18 15 -19 -34 -15 -28 2 -70 -3 -92 -10 l-41 -13 72 -7 c100 -10 167 -34 215
-79 38 -37 40 -41 35 -87 -4 -45 -27 -163 -34 -172 -2 -3 -13 5 -26 17 -49 46
-116 67 -212 67 -117 -1 -182 -29 -265 -116 l-59 -60 -21 42 c-28 53 -36 135
-20 185 14 43 60 98 102 120 36 19 102 18 143 -2 33 -15 45 -42 45 -100 0 -38
15 -28 28 20 6 24 27 64 46 89 34 45 35 46 10 36 -14 -5 -35 -16 -47 -24 -18
-12 -23 -12 -47 5 -15 11 -48 25 -74 32 -40 11 -54 10 -91 -3 -39 -14 -60 -13
-84 7 -3 3 59 60 92 83 12 8 46 25 76 38 73 31 160 27 223 -10z m-422 -67 c0
-17 -44 -37 -95 -44 -70 -9 -186 -67 -248 -124 -42 -39 -60 -49 -92 -50 l-40
-2 43 39 c96 88 237 162 343 180 75 12 89 12 89 1z m2629 -66 c83 -40 109 -60
193 -144 94 -94 119 -131 81 -115 -35 13 -119 17 -156 7 -38 -11 -39 -10 -33
13 14 54 -55 149 -145 202 -23 14 -59 61 -59 77 0 13 29 4 119 -40z m-2611
-23 c10 -6 10 -11 -3 -21 -37 -30 -59 -93 -59 -167 l0 -71 -29 20 c-37 27 -45
49 -36 111 3 29 5 54 3 56 -3 4 -33 -60 -47 -101 -5 -13 -18 -18 -44 -19 -39
0 -94 -17 -62 -18 85 -4 187 -73 221 -148 22 -50 14 -99 -25 -147 -23 -29 -26
-29 -133 -33 -60 -2 -119 -4 -132 -4 -13 -1 -46 13 -73 30 -27 16 -49 26 -49
20 0 -17 21 -52 48 -81 l25 -27 -24 -9 c-13 -5 -48 -12 -76 -16 l-53 -7 0 58
c1 239 172 486 389 560 67 23 136 29 159 14z m-448 -175 c0 -2 -20 -37 -45
-77 l-45 -74 -69 -11 c-38 -6 -92 -23 -120 -38 l-52 -26 18 31 c27 47 110 117
178 151 74 38 135 58 135 44z m-121 -248 c-11 -33 -22 -101 -26 -149 -5 -80
-8 -88 -30 -98 -39 -18 -102 -72 -143 -123 -38 -48 -38 -48 -52 -25 -25 38
-38 88 -38 142 0 134 86 243 234 295 76 28 76 27 55 -42z m3846 -269 c19 -37
35 -70 35 -73 0 -4 -18 3 -40 14 -21 11 -46 20 -54 20 -9 0 -18 12 -21 28 -3
15 -12 53 -20 84 -8 32 -15 61 -15 65 0 21 84 -80 115 -138z m-4186 -155 c-35
-38 -42 -30 -37 40 8 90 17 99 40 37 l20 -53 -23 -24z m4209 7 c58 -46 123
-139 149 -213 13 -38 18 -83 18 -158 0 -97 -2 -110 -31 -171 -18 -37 -49 -85
-69 -108 -25 -27 -32 -41 -22 -41 23 0 77 49 108 98 17 27 30 39 34 31 12 -18
18 -133 11 -184 -7 -43 -11 -48 -49 -66 -54 -24 -108 -24 -157 1 -33 17 -45
33 -70 86 -16 36 -43 83 -60 104 -29 36 -30 42 -20 77 11 39 31 73 107 182 74
109 77 209 10 349 -14 29 -22 52 -17 52 5 0 30 -18 58 -39z m-4145 -45 c3 -8
3 -38 0 -68 -11 -109 25 -242 90 -330 45 -60 184 -128 264 -128 32 0 38 -18 7
-26 -33 -8 -167 1 -216 16 -66 19 -150 84 -185 142 -64 106 -77 248 -31 334
35 67 60 88 71 60z m4432 -453 c19 -74 19 -176 -1 -265 -23 -99 -38 -76 -40
60 -1 69 -7 125 -18 157 -14 43 -15 59 -4 113 l12 63 18 -35 c10 -19 25 -61
33 -93z m-4342 -124 c17 -8 27 -25 36 -59 14 -54 62 -115 112 -144 l34 -20
-28 35 c-29 35 -77 126 -77 145 0 6 21 9 58 6 32 -2 89 1 127 7 65 10 71 9
100 -13 42 -32 111 -66 134 -66 27 0 33 -13 22 -44 -12 -29 -79 -53 -179 -63
-57 -5 -62 -8 -48 -22 20 -19 124 -26 184 -13 37 9 44 8 48 -6 3 -10 19 -48
35 -87 17 -38 33 -75 35 -81 8 -17 -109 9 -214 49 -222 83 -374 216 -417 365
-7 25 2 27 38 11z m4378 -439 c-5 -118 -15 -233 -21 -255 -12 -39 -13 -39 -22
-15 -5 14 -19 44 -30 67 l-20 41 27 69 c22 53 29 89 32 163 2 52 12 124 21
160 17 64 17 65 20 25 1 -22 -2 -137 -7 -255z m-104 -247 c8 -21 16 -65 16
-99 1 -73 -30 -134 -93 -184 l-40 -32 0 42 c0 43 -14 80 -30 80 -6 0 -10 -20
-10 -44 0 -56 -32 -104 -90 -134 -51 -27 -103 -26 -163 3 -31 14 -35 20 -27
35 6 10 10 29 10 43 0 23 2 23 54 19 30 -2 71 1 91 8 50 16 111 80 155 159 31
56 95 141 107 141 2 0 11 -17 20 -37z m-1942 -297 l70 -12 -40 -27 c-48 -33
-143 -63 -157 -49 -14 14 -38 99 -30 107 4 4 25 3 47 -1 22 -4 72 -12 110 -18z
m380 -8 c-23 -105 -105 -201 -201 -238 -77 -29 -154 -32 -183 -6 -12 11 -21
22 -21 26 0 4 23 10 50 13 103 12 205 89 246 184 10 22 23 35 42 39 15 3 32 7
37 9 30 10 36 5 30 -27z m155 -33 c0 -21 -60 -103 -95 -130 -35 -26 -96 -56
-145 -70 -19 -6 -13 3 26 38 52 47 86 108 99 178 l7 36 54 -20 c30 -11 54 -25
54 -32z m-750 -15 c27 -88 59 -141 122 -203 52 -51 56 -57 31 -51 -119 29
-223 127 -267 251 l-14 41 46 10 c26 5 51 9 56 8 5 -1 16 -26 26 -56z m441 21
c-49 -68 -130 -121 -224 -145 -61 -16 -73 -13 -92 24 l-14 27 46 7 c62 8 130
44 161 83 23 31 28 33 84 33 l59 0 -20 -29z m-615 -53 c77 -153 182 -238 336
-272 15 -4 33 -16 39 -27 11 -21 10 -21 -52 -17 -80 5 -161 41 -225 100 -84
77 -174 239 -143 259 8 5 15 9 16 9 2 0 15 -24 29 -52z m1474 19 c30 -8 95
-26 144 -41 64 -19 111 -26 171 -26 l83 0 11 -44 c19 -78 19 -79 -61 -41 -176
83 -370 118 -645 119 -112 1 -203 4 -203 8 0 4 4 17 9 30 l9 23 213 -6 c138
-5 233 -12 269 -22z m-155 -78 c194 -17 395 -68 528 -135 43 -22 47 -27 41
-52 -10 -43 -17 -44 -75 -13 -160 87 -412 140 -712 148 l-199 6 21 20 c33 33
196 44 396 26z m-140 -128 c75 -21 124 -42 325 -139 75 -36 162 -69 217 -82
83 -21 91 -25 82 -41 -29 -55 -129 -33 -334 72 -105 54 -227 106 -355 151
l-195 69 95 -5 c52 -3 127 -14 165 -25z m-208 -37 c76 -31 199 -79 273 -106
74 -27 163 -65 197 -84 82 -45 154 -73 228 -88 l60 -13 -30 -12 c-57 -24 -131
-9 -260 51 -77 36 -168 69 -255 91 -75 20 -169 48 -210 62 -84 31 -230 103
-230 115 0 7 65 38 82 39 3 1 69 -24 145 -55z m465 26 c117 -24 262 -69 353
-110 53 -24 63 -32 58 -49 -9 -37 -24 -40 -100 -20 -68 17 -455 199 -425 199
8 0 59 -9 114 -20z m-682 -71 c127 -84 287 -146 443 -173 61 -11 115 -29 173
-58 46 -23 83 -42 82 -44 -2 -1 -46 2 -99 7 -236 22 -475 115 -660 256 -53 40
-58 49 -31 56 19 4 17 5 92 -44z m-115 -20 c153 -155 426 -261 759 -293 l121
-12 -53 -12 c-74 -17 -128 -15 -267 8 -151 25 -248 52 -341 95 -115 53 -235
141 -295 216 l-31 39 34 0 c25 -1 42 -10 73 -41z m-116 -3 c33 -53 152 -160
229 -205 122 -73 273 -121 438 -140 l69 -8 -86 -2 c-209 -3 -438 73 -585 193
-60 49 -128 125 -149 167 l-16 29 40 0 c34 0 42 -5 60 -34z m-58 -149 c54 -60
57 -64 61 -127 4 -47 14 -83 38 -130 33 -63 124 -393 112 -405 -12 -11 -61 -4
-80 13 -12 9 -37 60 -57 112 -55 144 -102 244 -168 359 -56 98 -96 180 -111
226 -6 19 -2 20 72 17 l77 -4 56 -61z m202 -147 c57 -32 57 -32 57 -80 0 -26
-7 -66 -15 -89 -14 -41 -14 -44 30 -162 35 -92 43 -125 35 -139 -9 -17 -47
-37 -55 -28 -2 2 -22 80 -43 174 -28 118 -48 182 -65 207 -24 35 -47 113 -47
159 0 19 2 19 23 6 12 -8 48 -30 80 -48z"/>
<path d="M9066 3688 c-51 -139 -163 -368 -219 -451 -26 -37 -47 -69 -47 -72 0
-3 17 6 38 20 35 24 92 84 141 152 l24 32 71 -26 c39 -14 98 -39 130 -54 33
-16 62 -27 64 -24 10 10 -53 67 -127 116 -41 26 -78 50 -82 51 -5 2 3 35 18
73 20 54 27 95 31 178 2 59 3 107 0 107 -2 0 -21 -46 -42 -102z"/>
<path d="M7514 3240 c4 -14 10 -61 13 -106 9 -138 -36 -238 -130 -285 -54 -28
-171 -48 -281 -49 -142 0 -193 35 -227 154 l-17 61 -7 -37 c-10 -51 1 -105 30
-149 l24 -37 -67 -30 c-94 -43 -146 -55 -232 -54 -111 0 -178 37 -275 150
l-45 54 0 -35 c0 -19 10 -49 23 -68 l23 -35 -95 4 c-76 3 -100 0 -116 -12 -19
-15 -18 -15 18 -16 100 -1 235 -48 282 -99 19 -22 19 -22 -48 -152 -41 -78
-67 -141 -67 -160 0 -29 6 -23 76 72 41 57 92 121 112 142 72 75 177 109 288
92 43 -6 56 -14 102 -63 l52 -56 0 56 c0 46 5 62 26 87 41 50 102 62 320 68
l192 6 21 -49 c22 -49 57 -94 73 -94 5 0 -3 22 -17 50 -32 63 -32 104 -1 135
36 36 98 49 236 50 115 0 129 -2 175 -26 31 -15 67 -46 95 -82 48 -60 60 -56
37 11 l-14 41 45 7 c67 10 185 -2 234 -24 61 -28 98 -72 124 -149 21 -63 23
-65 30 -38 4 16 2 62 -5 101 -16 94 -4 142 45 182 47 39 92 52 207 59 98 6 99
6 65 21 -19 8 -66 15 -110 16 l-77 1 44 45 c24 25 47 58 51 73 6 27 1 24 -87
-43 -209 -159 -444 -231 -530 -162 -29 24 -27 58 7 110 15 23 29 52 31 65 3
19 -2 17 -33 -16 -89 -91 -182 -121 -386 -121 -127 -1 -150 1 -165 16 -40 40
-3 160 78 252 22 25 38 46 35 46 -22 0 -76 -32 -98 -58 l-26 -31 -12 48 c-6
27 -21 58 -32 68 -21 18 -21 18 -14 -7z"/>
<path d="M2295 4737 c-89 -9 -218 -46 -365 -103 -141 -55 -189 -82 -232 -133
-32 -37 -36 -39 -103 -43 -83 -4 -151 -34 -207 -90 -21 -21 -44 -38 -51 -38
-7 0 -36 -7 -65 -15 -123 -37 -266 -239 -313 -442 -9 -38 -19 -54 -44 -70 -82
-54 -125 -226 -104 -419 8 -76 8 -113 0 -136 -15 -43 -14 -106 4 -163 13 -45
12 -53 -6 -109 -25 -74 -28 -211 -5 -276 9 -25 18 -90 20 -145 3 -65 12 -125
26 -170 25 -80 71 -175 93 -194 12 -9 13 -19 6 -46 -14 -49 3 -102 56 -180
l44 -64 -15 -43 c-39 -106 -12 -280 70 -454 24 -51 46 -114 50 -145 13 -98 44
-172 96 -228 17 -18 47 -65 67 -105 140 -279 383 -457 655 -483 57 -5 80 -13
119 -39 100 -67 211 -66 349 3 64 33 79 46 106 90 17 29 37 80 44 115 8 34 24
78 37 97 13 18 23 38 23 42 0 5 5 9 10 9 6 0 10 -5 10 -11 0 -26 64 -166 103
-228 49 -74 101 -120 174 -153 95 -43 247 -24 318 41 11 10 54 26 95 35 163
36 348 142 481 275 69 70 94 104 132 180 26 51 47 99 47 106 0 7 18 35 41 61
52 63 143 247 168 344 11 41 25 116 30 165 6 50 15 110 20 135 6 25 10 95 11
155 0 87 4 122 21 165 16 43 20 70 16 122 -4 60 -2 69 18 88 89 84 132 323
106 582 -10 99 -10 131 4 224 13 88 15 147 10 304 -10 260 -36 363 -115 454
-17 18 -30 45 -30 59 0 44 -38 150 -77 215 -89 145 -197 233 -313 254 -51 9
-74 19 -116 53 -44 36 -144 85 -174 85 -4 0 -22 11 -38 25 -60 50 -176 115
-229 126 -39 9 -63 9 -89 1 -33 -10 -39 -8 -84 24 -102 73 -296 113 -404 83
-45 -12 -124 -82 -152 -134 -10 -19 -21 -35 -24 -35 -3 0 -24 31 -48 68 -24
38 -58 77 -75 87 -41 24 -113 32 -202 22z m755 -96 c90 -31 156 -76 185 -126
14 -23 25 -45 25 -48 0 -3 -23 5 -51 20 -28 14 -83 30 -123 36 -54 8 -78 17
-101 37 -16 15 -40 33 -52 39 -18 9 -17 4 13 -40 19 -28 34 -56 34 -63 0 -6
-16 -20 -36 -31 -50 -27 -86 -92 -82 -147 l3 -43 27 57 c40 87 88 107 142 59
50 -44 117 -243 119 -357 2 -92 -14 -114 -84 -114 -66 0 -84 27 -84 127 0 40
-1 73 -3 73 -2 0 -10 -16 -18 -35 -18 -44 -18 -132 1 -165 23 -40 18 -60 -26
-107 -22 -25 -39 -47 -36 -49 3 -3 22 7 42 21 54 36 162 68 205 60 75 -13 140
-82 140 -148 0 -46 -18 -76 -88 -145 -64 -62 -97 -110 -123 -179 -7 -18 18 2
78 63 86 87 140 124 182 124 20 0 101 -29 101 -36 0 -2 -11 -20 -25 -40 -14
-20 -25 -48 -25 -61 0 -24 1 -23 46 15 29 26 59 43 84 47 44 7 139 -14 199
-44 52 -27 126 -111 147 -169 23 -62 32 -70 40 -38 6 25 2 53 -12 91 -6 14 3
12 46 -10 125 -63 198 -190 236 -410 l7 -40 13 30 c7 17 13 58 14 92 l0 62 29
-10 c99 -35 151 -193 96 -298 -8 -16 -29 -40 -47 -53 -28 -20 -45 -23 -118
-23 -71 0 -92 4 -127 24 -48 28 -78 65 -99 123 -21 62 -17 126 16 226 27 83
42 200 22 177 -5 -6 -21 -42 -36 -81 -32 -85 -84 -150 -127 -159 -24 -6 -48 1
-113 34 -45 23 -88 41 -94 41 -16 0 -15 3 10 46 18 31 23 58 28 156 3 65 2
118 -1 118 -11 0 -30 -54 -44 -126 -16 -86 -36 -132 -71 -165 -24 -22 -35 -24
-149 -27 -216 -6 -272 27 -349 205 -52 118 -92 179 -185 277 -97 103 -105 129
-99 293 6 141 22 189 83 254 48 52 63 88 48 122 -9 20 -11 19 -22 -15 -7 -22
-29 -51 -55 -72 l-43 -35 -7 62 c-9 76 -26 147 -36 147 -4 0 -10 -82 -14 -182
-7 -193 -15 -278 -25 -278 -3 0 -19 66 -34 148 -25 129 -27 155 -18 217 6 39
11 118 11 178 0 59 4 107 8 107 17 0 44 -39 56 -81 l13 -43 22 57 c31 85 55
128 91 165 18 17 27 32 21 32 -22 0 -55 -22 -99 -63 l-42 -42 6 35 c10 53 32
89 67 111 27 17 45 20 117 16 52 -2 110 -13 150 -26z m-631 6 c51 -18 48 -32
-11 -46 -82 -18 -192 -78 -238 -127 -54 -58 -51 -72 8 -30 61 44 152 89 224
111 53 17 58 17 82 2 33 -22 50 -85 41 -155 l-7 -55 -29 51 c-15 27 -42 60
-59 72 -36 26 -37 21 -6 -33 34 -59 74 -176 82 -239 l7 -53 -29 26 c-37 34
-87 59 -116 58 -22 0 -22 -1 -4 -12 51 -31 106 -92 126 -139 29 -67 63 -277
56 -346 -2 -30 -15 -68 -28 -90 l-23 -37 -6 63 c-6 68 -29 111 -29 56 0 -55
-28 -124 -83 -207 -30 -45 -65 -108 -78 -141 -23 -57 -24 -58 -38 -35 -20 32
-118 129 -131 129 -5 0 4 -21 20 -47 68 -107 88 -217 50 -277 -22 -36 -94 -81
-115 -72 -8 3 -15 17 -15 32 0 32 -34 90 -62 105 -29 15 -30 8 -8 -36 26 -51
25 -78 -2 -110 -52 -59 -202 -31 -263 49 -15 19 -37 67 -49 106 -12 38 -26 73
-31 77 -15 15 5 -146 25 -199 24 -63 23 -58 7 -58 -8 0 -35 -14 -60 -31 -60
-40 -114 -48 -156 -23 -37 22 -71 86 -71 135 -1 29 -2 31 -12 15 -24 -42 17
-180 62 -208 28 -18 25 -25 -15 -38 -44 -15 -93 0 -141 42 -21 19 -34 25 -34
16 0 -25 48 -85 79 -98 17 -7 31 -15 30 -19 -2 -23 -102 -140 -134 -158 -84
-47 -256 -54 -309 -12 -49 38 -73 187 -41 249 17 33 64 61 109 67 16 1 44 12
62 22 32 19 32 19 38 -2 3 -12 6 -36 6 -53 0 -46 11 -94 21 -94 5 0 9 25 9 55
0 134 73 344 136 394 20 15 41 21 80 21 l54 0 1 -57 c1 -32 4 -49 6 -38 10 39
75 135 116 170 22 19 59 40 82 46 22 6 100 29 173 51 115 35 141 40 205 36 39
-3 81 -8 92 -12 13 -5 7 4 -15 23 -19 17 -49 34 -66 37 l-32 6 18 31 c10 18
26 57 35 87 25 78 90 140 171 163 104 29 177 17 237 -40 20 -20 27 -23 27 -11
0 24 -43 81 -77 103 -31 19 -32 23 -33 85 -1 36 -8 81 -15 100 -13 34 -13 33
-14 -45 -2 -121 -2 -121 -74 -128 -34 -4 -72 -10 -84 -13 -22 -6 -23 -4 -23
72 0 158 67 315 166 386 24 17 42 33 40 36 -11 10 -80 -35 -124 -82 -84 -88
-129 -199 -147 -361 -11 -98 -48 -134 -119 -114 -52 14 -94 54 -102 95 -6 31
8 109 31 179 5 14 -1 12 -19 -10 -31 -35 -56 -112 -56 -169 l0 -41 -61 3 c-79
5 -100 -13 -27 -22 145 -20 232 -118 199 -226 -26 -88 -169 -148 -255 -108
-32 14 -63 76 -74 148 l-9 55 -12 -43 c-17 -62 2 -135 51 -188 l19 -21 -66
-27 c-76 -30 -98 -25 -121 29 -18 44 -18 153 1 234 15 62 69 181 120 262 22
34 23 39 7 30 -10 -5 -35 -28 -55 -50 l-36 -40 -43 18 c-24 10 -61 22 -83 25
-40 7 -40 7 28 -36 46 -29 66 -48 63 -58 -3 -8 -17 -49 -32 -90 -23 -64 -28
-97 -33 -223 -6 -147 -7 -149 -34 -173 -40 -34 -98 -36 -132 -3 -30 29 -24
125 14 235 17 49 31 102 30 119 -1 29 -2 28 -24 -19 l-24 -49 -7 37 c-10 55 4
184 26 232 23 53 78 114 155 172 88 66 124 102 146 145 11 20 17 37 13 37 -3
0 -26 -18 -52 -40 -43 -38 -46 -39 -64 -24 -17 16 -17 18 -1 37 32 35 100 76
146 89 94 25 230 -35 211 -94 -4 -13 -44 -59 -90 -103 -47 -44 -84 -88 -84
-98 0 -15 10 -10 48 23 72 64 176 122 281 157 84 27 92 32 68 38 -15 4 -43 5
-62 3 -41 -5 -41 -2 8 81 38 64 121 142 194 183 30 17 52 32 50 34 -9 9 -98
-26 -138 -53 -66 -46 -141 -130 -179 -201 l-33 -62 -18 39 c-10 22 -33 50 -53
63 -43 28 -44 37 -9 73 38 38 136 85 278 134 194 67 300 84 374 58z m979 -121
c22 -8 70 -34 108 -57 l67 -43 -41 -14 c-49 -16 -89 -54 -100 -95 l-8 -31 -24
35 c-13 19 -33 45 -46 59 -12 14 -29 50 -38 80 -10 30 -20 61 -22 68 -8 17 53
16 104 -2z m-192 -88 c34 -16 78 -46 97 -66 l36 -37 -109 0 c-61 0 -110 2
-110 5 0 3 -18 32 -40 65 -22 33 -40 64 -40 68 0 17 107 -5 166 -35z m501 -74
c26 -9 67 -30 91 -46 41 -28 43 -31 26 -49 -16 -18 -17 -17 -52 9 -31 24 -35
24 -28 7 16 -44 55 -87 126 -142 41 -32 95 -78 119 -102 83 -84 121 -216 87
-305 -17 -45 -94 -126 -119 -126 -9 0 -21 25 -32 66 -10 37 -41 113 -69 169
l-52 103 53 4 c47 4 93 27 93 47 0 3 -20 5 -44 3 -25 -2 -70 4 -102 13 -47 13
-69 28 -124 83 -37 37 -93 90 -124 117 -63 57 -71 87 -32 124 44 41 108 50
183 25z m-417 -75 c180 -41 396 -243 519 -484 71 -140 107 -267 89 -314 -20
-54 -61 -54 -171 1 l-84 41 43 42 c27 25 44 51 44 64 0 22 -1 22 -37 -9 -45
-40 -108 -69 -147 -70 -84 0 -158 55 -172 127 -8 41 7 110 33 149 22 34 92 81
156 105 l52 19 -67 -4 c-51 -3 -68 0 -68 9 0 44 -44 147 -80 186 l-40 44 32
-69 c35 -77 46 -150 26 -182 -7 -12 -33 -46 -58 -77 l-45 -56 -30 29 c-16 16
-47 36 -67 44 l-37 16 16 37 c22 54 13 158 -24 265 -27 76 -28 88 -14 91 30 8
86 7 131 -4z m711 -57 c71 -46 144 -135 194 -235 42 -86 47 -103 70 -270 28
-198 29 -207 16 -207 -10 0 -40 67 -66 148 -9 29 -27 65 -40 80 -13 16 -26 49
-30 77 -4 28 -17 79 -27 115 -18 56 -30 74 -87 130 -37 36 -92 83 -123 105
-32 22 -57 43 -58 47 0 12 53 37 81 38 14 0 45 -13 70 -28z m-2622 -6 c18 -21
3 -43 -73 -110 -51 -44 -74 -75 -103 -134 -37 -73 -38 -79 -38 -181 0 -58 2
-128 4 -156 2 -27 -2 -86 -9 -130 -16 -93 -9 -129 29 -164 l28 -25 -45 -96
c-55 -118 -82 -155 -132 -180 -68 -35 -129 -28 -148 16 -34 74 5 190 106 313
66 80 80 117 61 153 l-13 23 -6 -30 c-4 -17 -12 -40 -18 -50 -10 -19 -11 -19
-18 -2 -14 36 4 299 26 382 26 101 55 179 85 230 28 47 98 116 140 138 38 20
109 22 124 3z m2812 -619 c28 -73 65 -143 104 -202 34 -49 67 -105 73 -124 14
-38 16 -219 4 -239 -7 -9 -18 -5 -46 17 -38 30 -88 47 -105 36 -6 -3 -20 14
-32 37 -12 24 -31 56 -42 71 l-19 29 25 51 c24 50 31 83 28 137 -2 20 -6 14
-24 -27 -44 -105 -86 -121 -136 -52 -62 85 -66 164 -11 228 17 20 52 64 77 98
26 34 50 60 54 57 4 -2 27 -55 50 -117z m-3242 16 c0 -54 5 -121 9 -148 8 -49
7 -52 -30 -99 -48 -61 -53 -52 -53 109 0 112 2 124 28 178 16 31 32 57 36 57
5 0 9 -44 10 -97z m1746 30 c13 -42 15 -76 11 -122 l-7 -63 27 21 c70 55 124
6 232 -212 45 -89 97 -181 117 -204 l36 -42 -31 -42 c-32 -45 -60 -124 -60
-170 0 -36 -50 -86 -95 -95 -19 -3 -32 -10 -29 -15 7 -12 66 -11 98 1 23 8 26
7 26 -13 0 -20 48 -103 55 -95 1 2 -2 33 -8 69 -20 130 22 266 93 301 33 17
178 26 192 13 3 -3 -3 -22 -13 -43 -31 -59 -22 -67 24 -20 67 69 154 85 261
48 173 -59 290 -184 416 -441 27 -56 53 -105 56 -108 12 -10 -7 102 -25 156
l-17 52 30 -6 c54 -9 100 -25 128 -45 30 -21 63 -97 55 -128 -9 -34 11 -22 23
14 10 32 5 75 -16 130 -3 8 11 22 35 34 l40 21 6 -64 c8 -73 -7 -180 -34 -240
-23 -49 -64 -89 -115 -110 l-40 -17 28 36 c28 37 56 96 56 117 0 7 -21 -9 -47
-35 -82 -81 -177 -125 -228 -106 -15 6 -41 43 -74 106 -28 53 -51 98 -51 100
0 2 6 4 13 4 6 0 35 11 62 24 l50 24 -125 -5 -125 -5 48 32 c43 29 78 66 102
109 9 15 -17 1 -128 -70 -96 -62 -184 -73 -241 -28 -36 28 -39 62 -16 169 20
98 24 157 10 200 l-7 25 -7 -30 c-47 -189 -68 -244 -116 -298 -58 -66 -95 -47
-129 68 -20 67 -57 142 -66 133 -3 -2 0 -20 5 -39 6 -18 10 -55 10 -80 0 -25
7 -68 15 -95 8 -27 15 -51 15 -53 0 -2 -46 -2 -103 1 -91 3 -111 7 -165 34
-34 17 -62 27 -62 23 0 -5 16 -24 35 -43 59 -59 117 -70 327 -62 207 8 230 2
275 -65 25 -37 28 -52 28 -118 0 -65 -5 -86 -32 -143 -84 -178 -251 -264 -462
-238 -87 11 -207 64 -241 107 -16 21 -20 22 -20 8 0 -10 9 -32 20 -50 l20 -33
-36 -22 c-43 -24 -43 -24 -74 58 -28 73 -25 127 10 222 28 76 39 150 23 150
-5 0 -19 -24 -32 -53 l-24 -52 -8 75 c-5 41 -13 94 -19 117 -5 23 -10 93 -11
155 0 62 -6 133 -13 158 -10 39 -9 53 8 104 18 55 20 58 29 35 5 -13 10 -89
12 -169 4 -196 25 -266 104 -348 l41 -42 -21 -46 c-25 -59 -41 -132 -33 -146
4 -6 15 11 25 38 10 27 32 65 48 84 l29 35 62 -30 c37 -18 88 -54 124 -90 55
-54 166 -125 195 -125 6 0 -25 32 -68 70 -44 39 -83 74 -86 80 -4 6 25 7 77 3
46 -3 80 -2 75 3 -4 4 -44 18 -90 31 -194 56 -349 160 -403 269 -23 47 -27 71
-32 172 l-5 117 37 -33 c43 -37 66 -43 42 -9 -84 119 -111 200 -103 319 3 50
8 93 12 96 3 3 13 -5 22 -19 47 -67 129 -139 159 -139 3 0 -8 16 -25 35 -49
56 -129 180 -166 256 -33 69 -33 69 -40 38 -4 -17 -4 -56 -1 -88 5 -37 4 -51
-3 -42 -5 8 -14 60 -21 115 -7 56 -18 139 -25 184 -13 82 -13 85 12 143 14 32
27 59 29 59 1 0 10 -26 19 -57z m1690 -110 c16 -60 21 -173 8 -173 -5 0 -20
17 -34 38 -24 34 -27 48 -31 161 l-5 125 23 -47 c13 -25 31 -72 39 -104z
m-1840 -89 c32 -124 14 -216 -60 -295 -56 -60 -105 -137 -105 -163 1 -21 1
-21 15 -1 40 53 106 122 133 138 l31 17 12 -57 c14 -68 6 -178 -16 -244 -30
-88 -123 -169 -177 -156 -29 8 -51 54 -63 131 -4 27 -16 79 -27 115 -51 166
23 398 178 554 54 55 54 55 79 -39z m-683 -479 c54 -12 103 -14 188 -10 106 6
118 5 148 -15 74 -46 112 -214 64 -279 -30 -41 -28 -44 15 -26 48 20 58 10 58
-65 0 -46 2 -56 12 -48 16 13 36 85 28 98 -3 6 4 10 17 10 35 1 99 34 133 68
17 17 34 32 38 32 4 0 5 -48 1 -107 -8 -132 -27 -179 -95 -233 -79 -62 -146
-96 -288 -144 -74 -26 -137 -49 -140 -53 -3 -3 33 -3 82 0 48 3 87 4 87 1 0
-2 -12 -23 -26 -45 -44 -70 -106 -130 -191 -185 -45 -29 -86 -61 -91 -70 -27
-48 -73 35 -137 244 -40 133 -42 175 -7 222 46 62 160 95 278 80 113 -15 185
-12 224 8 41 23 55 49 19 36 -36 -13 -161 -10 -186 4 -21 12 -22 15 -9 35 8
12 19 49 26 82 6 33 18 89 26 124 8 35 13 65 11 68 -10 10 -51 -63 -78 -140
-35 -98 -56 -129 -96 -141 -66 -18 -119 37 -148 156 -16 63 -19 69 -27 47 -14
-34 -1 -137 22 -184 19 -38 19 -41 3 -53 -10 -7 -34 -18 -55 -24 -57 -17 -118
5 -240 88 -60 40 -108 68 -108 62 0 -6 27 -38 60 -71 l60 -60 -39 -36 c-21
-20 -63 -75 -93 -122 -55 -85 -104 -129 -144 -129 -30 0 -117 44 -156 79 -20
17 -39 31 -42 31 -11 0 21 -54 43 -74 l21 -19 -37 -14 c-21 -7 -42 -15 -47
-16 -15 -3 -72 86 -97 151 -14 37 -23 89 -27 150 l-5 92 72 -2 c39 -2 71 -3
71 -4 0 0 -7 -16 -16 -34 -23 -44 -28 -109 -13 -145 l12 -30 8 52 c11 81 51
140 113 168 28 13 62 26 75 30 21 6 23 5 17 -11 -15 -39 -27 -128 -21 -153 6
-22 13 -10 44 79 20 58 50 130 67 160 31 58 112 144 160 172 l30 17 -3 -67 -3
-67 25 65 c37 93 90 143 174 166 59 16 49 16 133 -1z m-222 -551 c25 -9 51
-18 58 -20 10 -3 9 -10 -3 -33 -8 -17 -15 -39 -15 -50 0 -20 -1 -19 -36 4 -20
14 -46 25 -57 25 -16 0 -11 -8 23 -41 48 -47 94 -138 145 -293 42 -124 44
-156 13 -156 -13 -1 -36 -7 -53 -15 l-30 -13 31 -1 c44 -1 97 -40 111 -81 17
-51 16 -233 -2 -275 -17 -42 -33 -50 -82 -40 -29 5 -55 25 -115 86 -71 71 -77
75 -63 42 49 -117 189 -218 254 -184 20 11 21 10 21 -41 0 -57 -41 -158 -76
-190 -35 -30 -145 -88 -200 -104 -88 -25 -202 5 -265 72 -32 34 -46 112 -37
201 7 67 38 163 52 163 3 0 14 -21 25 -46 12 -26 42 -75 67 -111 l46 -64 -16
-44 c-19 -56 -4 -58 30 -4 49 78 42 191 -15 259 l-29 35 14 -60 c7 -33 14 -73
13 -90 l0 -30 -19 37 c-33 62 -70 184 -70 232 0 27 13 80 33 131 l32 85 62 0
c76 0 135 -22 169 -64 l26 -31 -7 30 c-14 64 -80 104 -209 125 -104 17 -175
90 -192 198 -8 50 -24 38 -24 -18 0 -61 20 -112 60 -151 49 -48 54 -67 35
-118 -8 -23 -22 -60 -31 -83 -11 -29 -15 -64 -12 -107 4 -59 2 -65 -25 -95
-17 -17 -38 -48 -47 -68 l-17 -38 -26 53 c-66 136 -96 256 -79 318 8 30 10 32
17 14 15 -38 48 -77 88 -106 52 -38 64 -37 33 4 -27 35 -91 165 -84 172 2 2
23 -1 47 -6 24 -5 46 -8 48 -6 2 3 -24 25 -59 50 -103 74 -148 131 -148 187 0
31 58 89 95 96 19 3 57 0 85 -7 46 -12 55 -11 100 8 45 19 50 20 50 5 1 -42
101 -194 118 -178 3 3 -14 44 -38 92 -52 104 -51 138 7 222 42 62 105 132 119
132 4 0 29 -7 54 -16z m2148 -24 c39 -24 67 -68 88 -138 23 -78 12 -129 -43
-210 -26 -37 -57 -84 -69 -105 l-22 -39 -22 39 c-24 43 -70 81 -55 46 51 -124
68 -193 69 -278 1 -77 -3 -97 -24 -139 -50 -99 -147 -165 -199 -136 -30 15
-34 41 -26 166 l7 115 18 -29 c18 -29 70 -75 77 -68 2 2 -8 21 -22 41 -31 47
-55 125 -55 181 0 47 89 331 120 381 21 35 94 93 117 93 7 0 13 5 13 10 0 15
-45 12 -85 -4 -33 -14 -35 -14 -35 4 0 10 -3 25 -6 33 -3 8 5 24 17 36 30 27
93 28 137 1z m-1186 -139 c14 -91 3 -182 -31 -271 -31 -82 -37 -88 -56 -69
-15 15 -15 21 -1 69 22 75 21 105 -3 60 -31 -59 -55 -74 -92 -61 -38 13 -89
15 -89 3 0 -5 19 -14 41 -21 63 -19 134 -95 155 -167 34 -114 14 -406 -33
-487 -27 -45 -48 -55 -81 -37 -46 26 -61 73 -71 226 -11 148 -21 188 -70 275
-17 30 -39 90 -49 134 -20 86 -33 86 -35 -1 -1 -38 -5 -53 -13 -50 -30 11 -85
18 -101 12 -14 -6 -9 -11 24 -26 100 -45 171 -147 180 -259 3 -44 0 -63 -16
-88 -25 -40 -87 -86 -165 -124 -52 -25 -56 -29 -35 -34 13 -3 53 3 89 14 75
24 90 17 90 -40 0 -25 -15 -67 -46 -129 -95 -185 -172 -233 -309 -193 -20 6
-20 5 -1 -16 28 -31 88 -44 175 -36 71 6 77 5 98 -17 12 -13 34 -57 48 -98 30
-84 56 -132 94 -173 l25 -27 -33 -34 c-19 -19 -46 -40 -62 -46 -34 -14 -29
-30 8 -30 39 0 109 37 139 73 15 17 41 37 58 43 17 6 39 15 48 19 15 6 16 3 8
-26 -22 -76 -104 -141 -209 -165 -109 -26 -168 13 -268 178 -29 47 -53 88 -53
91 0 3 32 3 70 0 86 -7 92 7 13 31 -90 28 -209 94 -248 137 -53 60 -50 106 17
215 28 46 53 84 54 84 2 0 11 -17 19 -37 16 -38 64 -107 71 -101 2 2 -5 32
-16 66 -30 96 -43 263 -38 482 4 184 7 201 29 246 18 37 35 55 69 73 62 33
140 98 189 157 119 141 129 150 211 194 46 25 102 59 124 76 l41 32 13 -24 c7
-13 18 -60 24 -103z m1395 -213 c-7 -87 -22 -124 -67 -161 l-31 -26 -44 21
c-25 12 -45 25 -45 28 0 4 17 31 39 61 52 73 79 129 87 180 l7 42 30 -33 c29
-33 30 -35 24 -112z m217 101 c58 -46 14 -166 -112 -301 -25 -27 -42 -48 -38
-48 15 0 81 32 98 47 28 25 33 9 20 -74 -20 -125 -78 -198 -163 -205 -33 -3
-34 -3 -29 32 9 68 2 137 -19 179 l-22 42 30 25 c35 29 57 84 71 178 12 75 31
119 57 135 29 17 79 12 107 -10z m-1249 -273 c39 -14 82 -27 97 -30 l27 -6
-26 -48 c-15 -26 -28 -49 -30 -51 -2 -3 -13 5 -26 17 -13 12 -38 25 -57 29
l-34 6 37 -38 c43 -45 57 -86 57 -176 0 -37 7 -86 15 -109 14 -40 14 -45 -7
-83 -24 -43 -74 -83 -116 -94 -33 -8 -69 14 -82 51 -22 62 -34 271 -22 387 19
178 34 191 167 145z m412 -31 c46 -32 56 -90 50 -273 -6 -187 -26 -317 -66
-439 -26 -79 -26 -82 -6 -63 12 11 34 47 50 79 l28 59 24 -36 c14 -19 44 -54
68 -77 52 -51 63 -90 39 -142 -20 -42 -130 -156 -143 -148 -5 2 -12 19 -15 37
-9 50 -45 101 -105 149 -77 63 -88 82 -111 196 -11 56 -23 108 -26 116 -11 31
21 45 93 40 95 -7 98 -3 98 151 1 67 4 141 9 166 l7 45 -23 -27 c-33 -39 -132
-198 -126 -203 2 -3 23 11 45 30 23 19 44 35 47 35 4 0 4 -24 1 -52 -11 -96
-12 -98 -48 -98 -80 0 -163 43 -192 100 -19 37 -19 132 0 196 18 62 76 131
129 155 50 23 143 25 173 4z m-597 -7 c0 -2 -7 -39 -15 -83 -9 -44 -19 -136
-22 -205 l-7 -125 -22 70 c-45 141 -40 266 13 319 21 21 53 35 53 24z m1049
-12 c44 -23 99 -91 107 -131 3 -20 1 -62 -5 -93 -10 -54 -22 -79 -100 -226
-33 -64 -38 -104 -16 -151 l13 -30 1 35 c1 38 16 97 30 119 14 22 36 0 71 -73
29 -61 29 -61 30 -25 0 20 -13 61 -29 93 l-29 58 25 44 c30 54 36 58 56 36 48
-52 59 -162 27 -263 -35 -115 -91 -154 -220 -154 -71 0 -94 4 -141 26 -65 31
-125 87 -164 153 -23 40 -26 52 -20 101 7 51 9 55 29 48 91 -33 215 46 274
176 28 62 39 163 24 229 -11 46 -6 50 37 28z m307 -333 c-3 -27 -14 -70 -23
-98 l-16 -50 -12 50 c-6 28 -17 61 -24 73 -7 13 -11 25 -9 27 5 4 82 44 87 45
2 0 1 -21 -3 -47z m-1391 -209 c14 -18 42 -43 64 -54 29 -17 43 -35 59 -74 26
-61 44 -153 36 -178 -9 -28 11 -21 25 9 17 38 15 139 -4 192 -8 24 -14 45 -13
46 2 1 23 13 48 27 43 25 90 76 90 98 0 19 19 10 41 -21 72 -101 64 -331 -16
-496 -50 -101 -95 -133 -170 -119 -48 9 -89 47 -104 97 -7 24 -17 101 -22 171
-6 104 -13 139 -33 181 l-24 52 5 -51 c3 -29 2 -92 -2 -140 l-8 -89 -18 60
c-9 33 -29 114 -43 180 -23 110 -24 127 -13 207 l11 87 33 -76 c18 -42 44 -91
58 -109z m-367 -59 c30 -19 31 -23 26 -60 -13 -79 -7 -149 17 -200 l24 -50 6
121 c5 107 8 126 32 166 41 70 53 69 76 -10 44 -151 51 -227 27 -304 -30 -100
-126 -198 -194 -198 -71 0 -147 123 -174 280 -14 82 1 165 52 276 l30 67 23
-34 c12 -19 37 -43 55 -54z m1507 -272 c-44 -76 -123 -170 -183 -219 -50 -41
-112 -80 -112 -71 0 2 7 24 16 50 8 25 14 58 12 73 -3 26 -5 25 -39 -27 -50
-75 -131 -162 -186 -198 -55 -37 -69 -39 -49 -8 8 12 29 56 47 97 17 41 41 81
53 90 48 33 131 118 162 168 43 66 77 82 181 83 43 0 87 4 98 8 30 13 30 6 0
-46z m-2315 8 c0 -4 -5 -33 -11 -63 -8 -38 -8 -70 -1 -102 5 -25 6 -46 2 -46
-24 0 -132 149 -145 201 l-6 24 81 -3 c44 -2 80 -7 80 -11z m92 7 c8 -7 36
-41 62 -76 27 -35 72 -79 100 -98 63 -41 81 -65 136 -174 l42 -83 -63 7 c-130
15 -231 73 -280 162 -41 72 -54 146 -39 217 12 60 17 65 42 45z m1648 -46 c80
-80 56 -260 -49 -374 -120 -131 -268 -134 -385 -8 -44 47 -89 117 -101 159
l-7 24 34 -26 c46 -35 100 -57 141 -57 29 0 37 -5 47 -31 13 -30 62 -69 87
-69 9 0 6 11 -7 33 -32 51 -27 113 14 170 18 26 44 74 56 107 13 34 34 70 48
80 37 30 88 26 122 -8z"/>
</g>
</svg>
