<?xml version="1.0" encoding="utf-8"?>
<!-- Generator: Adobe Illustrator 17.1.0, SVG Export Plug-In . SVG Version: 6.00 Build 0)  -->
<!DOCTYPE svg PUBLIC "-//W3C//DTD SVG 1.1//EN" "http://www.w3.org/Graphics/SVG/1.1/DTD/svg11.dtd">
<svg version="1.1" id="Layer_1" xmlns="http://www.w3.org/2000/svg" xmlns:xlink="http://www.w3.org/1999/xlink" x="0px" y="0px"
	 viewBox="-83 0 235 221" enable-background="new -83 0 235 221" xml:space="preserve">
<g transform="translate(0.000000,221.000000) scale(0.100000,-0.100000)">
	<path d="M167.8,1728.3c5,11.5,10.2,22.8,15.9,33.7c70.5,133,230.8,255.9,391,301.3c78.6,22.2,268,19.1,345.6-6
		c148.1-47.4,301.3-170.3,367.8-295.2c5.7-10.9,10.9-22.2,15.9-33.7c38.9,0,77.8-0.1,116.8-0.1c-8.8,21.6-18.8,43.9-30.9,68
		c-115.9,231.8-354.7,380.9-623.7,391c-58.4,2-127,0-153.2-5c-230.8-42.3-432.3-188.4-531-385.9c-12.1-24.1-22.2-46.5-30.9-68
		C89.9,1728.2,128.9,1728.3,167.8,1728.3z"/>
</g>
<g transform="translate(0.000000,221.000000) scale(0.100000,-0.100000)">
	<path d="M976.5,1073.8c-10.6-13.3-20.5-26.4-29.8-39.4c45.6,0,91.3,0,136.9,0c115.5,148.6,147.8,243.3,147.8,422.3
		c0,120.8-15.1,195.3-61,293.9c-39.5,0-79-0.1-118.5-0.1c0.7-1.2,1.4-2.4,2.1-3.6c63.5-119.9,86.7-276.1,62.5-407.1
		C1100.5,1258.2,1057.2,1174.6,976.5,1073.8z"/>
	<path d="M276,1034.5c9.9,0,19.8,0,29.6,0c-39,79.7-84,160.4-132.2,234.8c-51.4,78.6-54.4,84.6-37.3,96.7
		c16.1,12.1,19.1,11.1,25.2-11.1c4-14.1,12.1-32.2,19.1-40.3c15.1-18.1,60.5-18.1,84.6,0c17.1,12.1,22.2,12.1,39.3,0
		c30.2-21.2,80.6-17.1,101.8,6c16.1,18.1,20.2,19.1,27.2,6c8.1-15.1,21.2-16.1,208.6-17.1c19.1,0,38.3,4,44.3,10.1
		c5,5,31.2,7.1,58.4,4c30.2-4,54.4-1,62.5,6c11.1,8.1,22.2,8.1,45.3-2l30.2-12.1l-80.6-126c-28.1-44-62.6-102.6-91.8-155.2
		c10,0,20,0,29.9,0c47,86.8,102,175.5,161.6,259c19.1,27.2,32.2,54.4,30.2,60.5s-19.1,11.1-37.3,11.1c-46.4,1-62.5,39.3-37.3,91.7
		c9.1,19.1,14.1,41.3,11.1,50.4c-8.1,19.1-33.3,19.1-40.3,0c-5-11.1-11.1-12.1-24.2-5c-71.5,38.3-159.2-41.3-130-117.9
		c7.1-20.2,5-25.2-18.1-34.3c-15.1-5-37.3-8.1-49.4-5c-22.2,6-22.2,6,6,35.3c38.3,37.3,47.4,74.6,26.2,106.8
		c-21.2,32.2-62.5,42.3-95.7,24.2c-38.3-21.2-53.4-57.4-47.4-111.8c4-35.3,1-48.4-10.1-52.4c-39.3-15.1-41.3,110.8-4,221.7
		c23.2,65.5,26.2,109.8,8.1,120.9c-21.2,13.1-46.4-35.3-58.4-110.8l-12.1-73.6l-28.2,10.1c-57.4,22.2-120.9-39.3-120.9-115.9
		c0-39.3-27.2-65.5-56.4-54.4c-19.1,7.1-18.1,73.6,1,119.9c8.1,20.2,12.1,43.3,9.1,52.4c-11.1,28.2-38.3,11.1-55.4-35.3
		c-10.1-27.2-33.3-59.5-60.5-83.6L63.6,1360l21.2-17.1C118.8,1316,206.6,1170.4,276,1034.5z M726.6,1459.8
		c17.1,22.2,61.5,10.1,71.5-19.1c5-14.1,6-38.3,2-53.4c-5-21.2-12.1-26.2-36.3-26.2C712.5,1361,692.4,1415.4,726.6,1459.8z
		 M548.3,1466.8c21.2,21.2,58.4,16.1,62.5-8.1c4-21.2-44.3-77.6-65.5-77.6C526.1,1381.2,528.1,1446.7,548.3,1466.8z M321.6,1444.7
		c21.2,40.3,42.3,46.4,71.5,20.2c22.2-20.2,23.2-54.4,3-92.7c-18.1-36.3-37.3-43.3-64.5-25.2
		C307.5,1364.1,303.4,1409.4,321.6,1444.7z"/>
	<path d="M57.2,1034.4c-9.5,13-19.2,26.1-29.8,39.4c-80.6,100.8-123.9,184.4-140.1,266c-24.2,131-1,287.2,62.5,407.1
		c0.6,1.2,1.4,2.4,2.1,3.6c-39.5,0-79,0.1-118.5,0.1c-45.8-98.6-61-173.1-61-293.9c0-179,32.3-273.7,147.8-422.3
		C-34.1,1034.4,11.5,1034.4,57.2,1034.4z"/>
</g>
<g transform="translate(0.000000,221.000000) scale(0.100000,-0.100000)">
	<path d="M358.9,1045.2C288.3,948.4,247.9,860,231,767.7c-7.1-44.3-20.2-93.7-29.2-108.8c-33.3-60.5-37.3-62.5-126-62.5H-6.8
		l7.1,53.4c12.8,98,70.1,243.4,152.4,395.3c-10,0-20,0-29.9,0c-16.8-30.2-31.8-58.5-42.8-80.9C28.5,857.4-24.9,699.2-24.9,651.9
		s-9.1-55.4-66.5-55.4h-54.4v33.3c0,89.7-54.5,250.2-135.3,415.4c-9.9,0-19.8,0-29.6,0c29.1-57,55.1-112.4,72.3-156.4
		c30.2-75.6,55.4-170.3,67.5-249.9l7.1-42.3h-83.6c-87.7,0-91.7,2-124.9,62.5c-9.1,15.1-22.2,64.5-29.2,108.8
		c-16.8,92.2-57.2,180.6-127.9,277.4c-45.7,0-91.4,0-137.1,0c3.9-5.1,7.9-10.2,12.1-15.5c93.7-117.9,132-193.5,147.1-292.2
		c15.1-91.7,38.3-146.1,91.7-206.6l40.3-45.3h575.4l42.3,43.3c53.4,55.4,79.6,113.9,94.7,208.6c15.1,98.8,53.4,174.3,147.1,292.2
		c4.2,5.3,8.2,10.5,12.2,15.6C450.4,1045.4,404.6,1045.2,358.9,1045.2z"/>
	<path d="M-351.4,439.2c-19.1-19.1-20.2-36.3-4-52.4c17.1-17.1,523-17.1,540.1,0c16.1,16.1,15.1,33.3-4,52.4
		C157.5,463.4-328.2,463.4-351.4,439.2z"/>
	<path d="M-355.4,322.4c-16.1-16.1-15.1-43.3,2-57.4c9.1-8.1,89.7-11.1,273.1-9.1c234.8,3,261,5,271.1,20.2
		c8.1,13.1,8.1,23.2,0,35.3c-10.1,16.1-36.3,18.1-272.1,21.2C-276.8,334.5-346.4,331.4-355.4,322.4z"/>
	<path d="M-321.2,197.4c-9.1-24.2-8.1-31.2,10.1-48.4c23.2-24.2,428.3-24.2,451.4,0c18.1,17.1,19.1,24.2,10.1,48.4
		c-5,14.1-35.3,16.1-235.8,16.1S-316.1,211.5-321.2,197.4z"/>
	<path d="M-216.4,82.5c-8.1-14.1-8.1-26.2,0-40.3c10.1-18.1,21.2-20.2,131-20.2s120.9,2,131,20.2c8.1,14.1,8.1,26.2,0,40.3
		c-10.1,18.1-21.2,20.2-131,20.2S-206.3,100.7-216.4,82.5z"/>
</g>
</svg>
