<?xml version="1.0" encoding="utf-8"?>
<!-- Generator: Adobe Illustrator 17.1.0, SVG Export Plug-In . SVG Version: 6.00 Build 0)  -->
<!DOCTYPE svg PUBLIC "-//W3C//DTD SVG 1.1//EN" "http://www.w3.org/Graphics/SVG/1.1/DTD/svg11.dtd">
<svg version="1.1" id="Layer_1" xmlns="http://www.w3.org/2000/svg" xmlns:xlink="http://www.w3.org/1999/xlink" x="0px" y="0px"
	 viewBox="0 0 612 792" enable-background="new 0 0 612 792" xml:space="preserve">
<path d="M317.8,48c0,2.2-0.7,4.3-2.2,5.4c-1.4,1.1-3.2,2.2-5.4,2.2c-2.2,0-4.3-0.7-5.4-2.2c-1.1-1.4-2.2-3.2-2.2-5.4
	c0-2.2,0.7-4.3,2.2-5.4s3.2-2.2,5.4-2.2c2.2,0,4.3,0.7,5.4,2.2S317.8,45.9,317.8,48z M275.5,74.9h33.7h33.7c0,0,2.9,1.4,4.3,3.6
	c1.4,2.2,1.4,5.4-4.3,9h-34h-34c-6.1-3.6-6.1-6.8-4.3-9C272.3,76.3,275.5,74.9,275.5,74.9z M259.1,81.4c0,1.8-0.7,3.2-1.8,4.7
	c-1.1,1.1-2.5,1.8-4.3,1.8s-3.2-0.7-4.3-1.8c-1.1-1.1-1.8-2.9-1.8-4.7s0.7-3.2,1.8-4.7c1.1-1.4,2.5-1.8,4.3-1.8s3.2,0.7,4.3,1.8
	S259.1,79.6,259.1,81.4z M138.3,741.5c0,16.5,8.6,24.4,17.6,28c8.6,3.6,17.6,3.2,17.6,3.2s58.1,0,121.5,0s131.9,0,152.7,0
	c20.8,0,29.7-9.3,33.7-18.3c3.9-9.3,2.5-18.3,2.5-18.3s0-162.3,0.4-328.6c0-166.3,0.4-336.9,0-353.4c0-16.5-10-24.7-20.1-29
	c-10-4.3-19.7-4.7-19.7-4.7s-58.4,0.4-121.1,0.4c-62.4,0.4-129.4,0.4-147.3-0.4s-27.2,6.8-32.3,15.1s-5.7,16.1-5.7,16.1
	s0,164.1,0,332.6S138.3,725,138.3,741.5z M150.5,117.2l2.5-1.4l2.5-1.1h154.5h154.5l1.4,1.8l1.4,1.8V382v263.8l-1.8,1.4l-1.8,1.4
	H308.5H153l-1.1-1.8l-1.1-1.8V383.5V121.8v-1.8L150.5,117.2z M349.4,707.8c0,10.8-4.3,20.8-11.5,28s-16.8,11.5-28,11.5
	s-20.8-4.3-28-11.5s-11.5-16.8-11.5-28c0-10.8,4.3-20.8,11.5-28s16.8-11.5,28-11.5s20.8,4.3,28,11.5
	C344.7,687,349.4,696.7,349.4,707.8z M327.5,691.3v16.8V725h-17.2h-17.2v-16.8v-16.8h17.2H327.5z M298.5,696.3v11.8V720h11.8h11.8
	v-11.8v-11.8h-11.8H298.5z"/>
</svg>
