<?xml version="1.0" encoding="utf-8"?>
<!-- Generator: Adobe Illustrator 17.1.0, SVG Export Plug-In . SVG Version: 6.00 Build 0)  -->
<!DOCTYPE svg PUBLIC "-//W3C//DTD SVG 1.1//EN" "http://www.w3.org/Graphics/SVG/1.1/DTD/svg11.dtd">
<svg version="1.1" xmlns="http://www.w3.org/2000/svg" xmlns:xlink="http://www.w3.org/1999/xlink" x="0px" y="0px"
	 viewBox="0 -9 612 801" enable-background="new 0 -9 612 801" xml:space="preserve">
<g id="Layer_1">
</g>
<g id="Layer_2">
</g>
<g id="Layer_3">
	<path d="M293.1,690.3V724h34.4v-33.7H293.1z M322.1,695.3V719h-23.7v-23.7H322.1z"/>
	<path d="M150.8,190.1v-70l-0.4-2.9l2.5-1.4l2.5-1.1h308.9l1.4,1.8l1.4,1.8V190c5.7,0,11.3,0,17,0c0.1-73.5,0.1-127-0.1-135.9
		c0-16.5-10-24.7-20.1-29c-10-4.3-19.7-4.7-19.7-4.7s-58.4,0.4-121.1,0.4c-62.4,0.4-129.4,0.4-147.3-0.4
		c-17.9-0.7-27.2,6.8-32.3,15.1c-5,8.2-5.7,16.1-5.7,16.1s0,57.1,0,138.5C142.2,190.1,146.5,190.1,150.8,190.1z M304.9,42.6
		c1.4-1.1,3.2-2.2,5.4-2.2s4.3,0.7,5.4,2.2c1.1,1.4,2.2,3.2,2.2,5.4s-0.7,4.3-2.2,5.4s-3.2,2.2-5.4,2.2s-4.3-0.7-5.4-2.2
		c-1.1-1.4-2.2-3.2-2.2-5.4S303.5,43.7,304.9,42.6z M270.5,78.5c1.8-2.2,5-3.6,5-3.6h67.4c0,0,2.9,1.4,4.3,3.6
		c1.4,2.2,1.4,5.4-4.3,9h-68.1C268.7,83.9,268.7,80.6,270.5,78.5z M248.7,76.7c1.1-1.4,2.5-1.8,4.3-1.8c1.8,0,3.2,0.7,4.3,1.8
		s1.8,2.9,1.8,4.7s-0.7,3.2-1.8,4.7c-1.1,1.1-2.5,1.8-4.3,1.8c-1.8,0-3.2-0.7-4.3-1.8c-1.1-1.1-1.8-2.9-1.8-4.7
		S247.6,78.1,248.7,76.7z M81,520.2c0-43.7-0.1-90.5-0.1-137V190.3c4.3,0,8.6,0,12.9,0v329.8C89.5,520.2,85.3,520.2,81,520.2z
		 M410.3,520.2V190.2c5.7,0,11.3,0,17-0.1c0,62.8-0.1,140-0.1,216.3c-0.1,38.8-0.1,77.4-0.2,113.8
		C421.4,520.2,415.8,520.2,410.3,520.2z M384.9,520.3c-5.5,0-11.1,0-16.6,0v124.5l-3.6,2.9H54l-1.1-1.8l-1.1-1.8V520.3
		c-4.3,0-8.6,0-12.8,0c0.1,114.7,0.3,208.3,0.3,220.2c0,16.5,8.6,24.4,17.6,28c8.6,3.6,17.6,3.2,17.6,3.2s58.1,0,121.5,0h152.7
		c20.8,0,29.7-9.3,33.7-18.3c3.9-9.3,2.5-18.3,2.5-18.3S384.8,639.7,384.9,520.3z M238.9,734.7c-7.2,7.2-16.8,11.5-28,11.5
		c-11.1,0-20.8-4.3-28-11.5s-11.5-16.8-11.5-28c0-10.8,4.3-20.8,11.5-28s16.8-11.5,28-11.5c11.1,0,20.8,4.3,28,11.5
		c6.8,7.2,11.5,16.8,11.5,28C250.4,717.5,246.1,727.6,238.9,734.7z"/>
</g>
</svg>
